<?xml version="1.0" standalone="no"?><!DOCTYPE svg PUBLIC "-//W3C//DTD SVG 1.1//EN" "http://www.w3.org/Graphics/SVG/1.1/DTD/svg11.dtd" >
<svg xmlns="http://www.w3.org/2000/svg">
<defs>
    <font id="remixicon" horiz-adv-x="1200">
    <font-face font-family="remixicon"
      units-per-em="1200" ascent="1020"
      descent="180" />
    <missing-glyph horiz-adv-x="0" /><glyph glyph-name="search-line"
            unicode="&#xF0D1;"
            horiz-adv-x="1200" d="M893.7075 197.0025L1107.8425 -17.1324999999999L1037.1325 -87.8425L822.9975000000001 126.2925C746.0025 64.6924999999999 648.3575000000001 27.8425 542.1575 27.8425C293.7575000000001 27.8425 92.1575 229.4425 92.1575 477.8425C92.1575 726.2425 293.7575000000001 927.8425 542.1575 927.8425C790.5575 927.8425 992.1575 726.2425 992.1575 477.8425C992.1575 371.6425 955.3075000000002 273.9975 893.7075 197.0025zM793.3925 234.1025C854.5324999999999 297.1125 892.1575 383.0625 892.1575 477.8425C892.1575 671.2175 735.5325 827.8425 542.1575 827.8425C348.7825000000001 827.8425 192.1575 671.2175 192.1575 477.8425C192.1575 284.4675 348.7825000000001 127.8425 542.1575 127.8425C636.9375 127.8425 722.8875 165.4675000000001 785.8975 226.6075L793.3925 234.1025z" /><glyph glyph-name="sun-fill"
            unicode="&#xF1BC;"
            horiz-adv-x="1200" d="M600 120C434.3145 120 300 254.315 300 420C300 585.6855 434.3145 720 600 720C765.6850000000001 720 900 585.6855 900 420C900 254.315 765.6850000000001 120 600 120zM550 970H650V820H550V970zM550 20H650V-130H550V20zM175.736 773.5535L246.4465 844.264L352.5125 738.198L281.802 667.4875L175.736 773.5535zM847.485 101.8L918.2 172.515L1024.2649999999999 66.4449999999999L953.555 -4.2649999999999L847.485 101.8zM953.555 844.264L1024.2649999999999 773.5535L918.2 667.4875L847.485 738.198L953.555 844.264zM281.802 172.515L352.5125 101.8L246.4465 -4.2649999999999L175.736 66.4449999999999L281.802 172.515zM1150 470V370H1000V470H1150zM200 470V370H50V470H200z" /><glyph glyph-name="arrow-right-up-long-line"
            unicode="&#xF5DD;"
            horiz-adv-x="1200" d="M299.47225 48.7669999999999L228.76225 119.467L800.52775 691.2330000000001L521.23775 691.2330000000001V791.2330000000001L971.23775 791.2330000000001L971.23775 341.232H871.23775L871.23775 620.524L299.47225 48.7669999999999z" /><glyph glyph-name="arrow-right-long-line"
            unicode="&#xF5DB;"
            horiz-adv-x="1200" d="M99.997 370.0057500000001L99.99 470.00075L908.585 470.00075L711.1 667.4887500000001L781.81 738.19925L1100.01 420.0007500000001L781.81 101.80075L711.1 172.51575L908.59 370.0007500000001L99.997 370.0057500000001z" /><glyph glyph-name="arrow-right-down-long-line"
            unicode="&#xF5D9;"
            horiz-adv-x="1200" d="M228.7675 720.5275000000001L299.4685 791.238L871.2325000000001 219.477V498.7620000000001H971.2325L971.2325 48.762L521.2325 48.762L521.2325 148.762L800.5225 148.762L228.7675 720.5275000000001z" /><glyph glyph-name="arrow-down-long-line"
            unicode="&#xF5D1;"
            horiz-adv-x="1200" d="M649.99425 920.003L549.99925 920.01L549.99925 111.415L352.51125 308.9L281.80075 238.1900000000001L599.99925 -80.01L918.19925 238.1900000000001L847.48425 308.9L649.99925 111.41L649.99425 920.003z" /><glyph glyph-name="arrow-left-down-long-line"
            unicode="&#xF5D3;"
            horiz-adv-x="1200" d="M971.233 720.5275000000001L900.5329999999999 791.238L328.767 219.477L328.767 498.7620000000001H228.767L228.767 48.762L678.768 48.762V148.762L399.476 148.762L971.233 720.5275000000001z" /><glyph glyph-name="arrow-left-long-line"
            unicode="&#xF5D5;"
            horiz-adv-x="1200" d="M1100.0049999999999 370.0057500000001L1100.01 470.00075L291.4125 470.00075L488.8985 667.4887500000001L418.1880000000001 738.19925L99.99 420.0007500000001L418.1880000000001 101.80075L488.8985 172.51575L291.4100000000001 370.0007500000001L1100.0049999999999 370.0057500000001z" /><glyph glyph-name="corner-right-up-line"
            unicode="&#xF311;"
            horiz-adv-x="1200" d="M690.895 19.99625L240.9015 19.99125L240.9 119.99125L590.895 119.99625L590.9 628.5862500000001L393.4135 431.1012500000001L322.703 501.81075L640.9 820.00875L959.1 501.81075L888.39 431.1012500000001L690.9 628.5887500000001L690.895 19.99625z" /><glyph glyph-name="corner-up-left-line"
            unicode="&#xF315;"
            horiz-adv-x="1200" d="M1000.0005 510.89625L1000.0105 60.90125L900.0105 60.90125L900.0055 410.89625L391.4120000000001 410.90125L588.9005 213.41125L518.1875 142.70125L199.9895 460.90125L518.1875 779.09875L588.9005 708.3882500000001L391.4095000000001 510.90125L1000.0005 510.89625z" /><glyph glyph-name="corner-up-right-line"
            unicode="&#xF319;"
            horiz-adv-x="1200" d="M199.9980000000001 510.89625L199.9915000000001 60.90125L299.9915000000001 60.90125L299.9965000000001 410.89625L808.5885000000001 410.90125L611.1035000000002 213.41125L681.8135000000002 142.70125L1000.0085 460.90125L681.8135000000002 779.09875L611.1035000000002 708.3882500000001L808.5885000000001 510.90125L199.9980000000001 510.89625z" /><glyph glyph-name="corner-right-down-line"
            unicode="&#xF30F;"
            horiz-adv-x="1200" d="M690.8955 820.0037500000001L240.901 820.0107499999999L240.8995 720.0107499999999L590.8955 720.0052500000002L590.9005 211.41425L393.413 408.89925L322.7025 338.18925L640.9005 19.98925L959.1005 338.18925L888.3855 408.89925L690.9005 211.40925L690.8955 820.0037500000001z" /><glyph glyph-name="checkbox-line"
            unicode="&#xEB85;"
            horiz-adv-x="1200" d="M200 870H1000C1027.615 870 1050 847.614 1050 820V20C1050 -7.615 1027.615 -30 1000 -30H200C172.386 -30 150 -7.615 150 20V820C150 847.614 172.386 870 200 870zM250 770V70H950V770H250zM550.13 220L337.9995 432.13L408.7105 502.845L550.13 361.42L832.975 644.264L903.685 573.5535L550.13 220z" /><glyph glyph-name="checkbox-circle-line"
            unicode="&#xEB81;"
            horiz-adv-x="1200" d="M200 420C200 640.914 379.086 820 600 820C820.915 820 1000 640.914 1000 420C1000 199.085 820.915 20 600 20C379.086 20 200 199.085 200 420zM600 920C323.8575 920 100 696.1424999999999 100 420C100 143.86 323.8575 -80 600 -80C876.14 -80 1100 143.86 1100 420C1100 696.1424999999999 876.14 920 600 920zM872.855 547.1445L802.145 617.8555L550 365.7099999999999L410.3555 505.355L339.6445 434.645L550 224.2900000000001L872.855 547.1445z" /><glyph glyph-name="check-line"
            unicode="&#xEB7B;"
            horiz-adv-x="1200" d="M493.934 260.9005L953.554 720.5195000000001L1024.2640000000001 649.809L493.934 119.4805L175.736 437.6755L246.447 508.3855L493.934 260.9005z" /><glyph glyph-name="add-line"
            unicode="&#xEA13;"
            horiz-adv-x="1200" d="M550 470V770H650V470H950V370H650V70H550V370H250V470H550z" /><glyph glyph-name="add-fill"
            unicode="&#xEA12;"
            horiz-adv-x="1200" d="M550 470V770H650V470H950V370H650V70H550V370H250V470H550z" /><glyph glyph-name="star-line"
            unicode="&#xF18B;"
            horiz-adv-x="1200" d="M600.0027249999999 74.7049999999999L247.330225 -122.705L326.096725 273.7100000000001L29.367275 548.115L430.719225 595.7020000000001L600.0027249999999 962.705L769.282725 595.7020000000001L1170.632725 548.115L873.9077249999999 273.7100000000001L952.672725 -122.705L600.0027249999999 74.7049999999999zM600.0027249999999 189.3050000000001L812.337725 70.4500000000002L764.912725 309.12L943.567725 474.335L701.9227249999999 502.9879999999999L600.0027249999999 723.9540000000001L498.0797249999999 502.9879999999999L256.433225 474.335L435.088225 309.12L387.664225 70.4500000000002L600.0027249999999 189.3050000000001z" /><glyph glyph-name="code-s-slash-fill"
            unicode="&#xEBAC;"
            horiz-adv-x="1200" d="M1200 420L917.155 137.155L846.4449999999999 207.87L1058.5800000000002 420L846.4449999999999 632.1320000000001L917.155 702.8425L1200 420zM141.4215 420L353.5535 207.87L282.8425000000001 137.155L0 420L282.8425000000001 702.8425L353.5535 632.1320000000001L141.4215 420zM489.4225 -30H383.0045L710.58 870H816.995L489.4225 -30z" /><glyph glyph-name="code-s-slash-line"
            unicode="&#xEBAD;"
            horiz-adv-x="1200" d="M1200 420L917.155 137.155L846.4449999999999 207.87L1058.5800000000002 420L846.4449999999999 632.1320000000001L917.155 702.8425L1200 420zM141.4215 420L353.5535 207.87L282.8425000000001 137.155L0 420L282.8425000000001 702.8425L353.5535 632.1320000000001L141.4215 420zM489.4225 -30H383.0045L710.58 870H816.995L489.4225 -30z" /><glyph glyph-name="bookmark-2-fill"
            unicode="&#xEAE0;"
            horiz-adv-x="1200" d="M250 936.085H950C977.6149999999998 936.085 1000 913.699 1000 886.085V-71.0799999999999C1000 -84.885 988.805 -96.085 975 -96.085C970.305 -96.085 965.7 -94.7550000000001 961.72 -92.26L600 134.52L238.2795 -92.26C226.5815 -99.595 211.153 -96.0599999999999 203.8185 -84.3599999999999C201.3235 -80.3799999999999 200 -75.78 200 -71.0799999999999V886.085C200 913.699 222.386 936.085 250 936.085zM400 586.085V486.085H800V586.085H400z" /><glyph glyph-name="megaphone-line"
            unicode="&#xF385;"
            horiz-adv-x="1200" d="M412.5 195C412.5 195 762.5 145 912.5 -5H962.5C990.115 -5 1012.5 17.385 1012.5 45V348.15C1055.63 359.25 1087.5 398.405 1087.5 445C1087.5 491.595 1055.63 530.75 1012.5 541.8499999999999V845C1012.5 872.614 990.115 895 962.5 895H912.5C762.5 745 412.5 695 412.5 695H212.5C157.2715 695 112.5 650.2284999999999 112.5 595V295C112.5 239.77 157.2715 195 212.5 195H262.5L312.5 -55H412.5V195zM512.5 611.94C546.665 619.27 588.875 629.4035 634.4649999999999 642.8135C718.375 667.4929999999999 825 706.369 912.5 766.271V123.73C825 183.63 718.375 222.505 634.4649999999999 247.185C588.875 260.5950000000001 546.665 270.73 512.5 278.06V611.94zM212.5 595H412.5V295H212.5V595z" /><glyph glyph-name="megaphone-2-fill"
            unicode="&#xF688;"
            horiz-adv-x="1200" d="M640.48 19.1918495251332C645.8000000000001 -34.0431504748669 608.19 -82.0281504748668 555.225 -89.5931504748669C508.4705 -96.263150474867 463.4545 -69.233150474867 447.3145 -24.848150474867L375 173.9268495251331H625L640.48 19.1918495251332zM997.265 922.1178495251332C1030.495 944.269849525133 1075 920.451349525133 1075 880.5168495251331V117.3868495251331C1075 77.4518495251331 1030.495 53.631849525133 997.265 75.786849525133L775 223.9268495251331H400C248.129 223.9268495251331 125.012 347.0618495251331 125 498.926849525133C125 650.804349525133 248.1215000000001 773.9253495251331 400 773.9253495251331H775L997.265 922.1178495251332z" /><glyph glyph-name="megaphone-2-line"
            unicode="&#xF689;"
            horiz-adv-x="1200" d="M640.48 19.1912496405915C645.8000000000001 -34.0437503594086 608.1850000000001 -82.0287503594085 555.225 -89.5937503594086C508.471 -96.2637503594084 463.4545 -69.2337503594084 447.3145 -24.8487503594085L375 173.9762496405915H625L640.48 19.1912496405915zM997.265 922.1187496405915C1030.495 944.2702496405914 1075 920.4517496405916 1075 880.5172496405916V117.3862496405916C1074.9850000000001 77.4712496405915 1030.4850000000001 53.6462496405916 997.265 75.7862496405914L775 223.9262496405915H400C248.1355 223.9262496405915 125.0225 347.0712496405916 125 498.9262496405915C125 650.8037496405915 248.1215000000001 773.9257496405916 400 773.9257496405916H775L997.265 922.1187496405915zM805.275 673.9262496405915H400C303.3520000000001 673.9262496405915 225.004 595.5722496405915 225 498.9262496405915C225.0255 402.2912496405916 303.376 323.9262496405916 400 323.9262496405916H805.275L975 210.8912496405916V787.1092496405915L805.275 673.9262496405915z" /><glyph glyph-name="megaphone-fill"
            unicode="&#xF384;"
            horiz-adv-x="1200" d="M1012.5 541.8499999999999V845C1012.5 872.614 990.115 895 962.5 895H912.5C813.5699999999999 796.068 627.635 740.636 512.5 714.3595V175.64C627.635 149.365 813.5699999999999 93.9300000000001 912.5 -5H962.5C990.115 -5 1012.5 17.385 1012.5 45V348.15C1055.63 359.25 1087.5 398.405 1087.5 445C1087.5 491.595 1055.63 530.75 1012.5 541.8499999999999zM212.5 695C157.2715 695 112.5 650.2284999999999 112.5 595V295C112.5 239.77 157.2715 195 212.5 195H262.5L312.5 -55H412.5V695H212.5z" /><glyph glyph-name="bar-chart-fill"
            unicode="&#xEA99;"
            horiz-adv-x="1200" d="M150 395H350V-55H150V395zM850 595H1050V-55H850V595zM500 895H700V-55H500V895z" /><glyph glyph-name="cloud-line"
            unicode="&#xEB9D;"
            horiz-adv-x="1200" d="M600 895C793.3 895 950 738.2995000000001 950 545C950 539.3245 949.865 533.6804999999999 949.6 528.0715C1066.325 487 1150 375.77 1150 245C1150 79.3149999999999 1015.685 -55 850 -55H350C184.3145 -55 50 79.3149999999999 50 245C50 375.77 133.673 487 250.402 528.0715C250.135 533.6804999999999 250 539.3245 250 545C250 738.2995000000001 406.7005 895 600 895zM600 795C461.929 795 350 683.071 350 545C350 540.9265 350.0965 536.8685 350.289 532.828L353.831 458.455L283.5915 433.74C204.22 405.8150000000001 150 330.555 150 245C150 134.5450000000001 239.543 45 350 45H850C960.455 45 1050 134.5450000000001 1050 245C1050 355.5 960.5 445 850 445C761.65 445 686.6850000000001 387.7150000000001 660.21 308.265L565.32 339.895C605.025 459.0749999999999 717.5 545 850 545C850 683.071 738.07 795 600 795z" /><glyph glyph-name="group-line"
            unicode="&#xEDE3;"
            horiz-adv-x="1200" d="M75 -105C75 115.915 254.086 295 475 295C695.915 295 875 115.915 875 -105H775C775 60.6850000000001 640.6850000000001 195 475 195C309.3145 195 175 60.6850000000001 175 -105H75zM475 345C309.25 345 175 479.25 175 645C175 810.75 309.25 945 475 945C640.75 945 775 810.75 775 645C775 479.25 640.75 345 475 345zM475 445C585.5 445 675 534.5 675 645C675 755.5 585.5 845 475 845C364.5 845 275 755.5 275 645C275 534.5 364.5 445 475 445zM889.185 259.86C1028.22 197.1950000000001 1125 57.4000000000001 1125 -105H1025C1025 16.8 952.415 121.6450000000001 848.1400000000001 168.645L889.185 259.86zM854.81 824.3395C954.72 783.1485 1025 684.8195000000001 1025 570C1025 426.49 915.21 308.74 775 296.12V396.77C859.835 408.89 925 481.8000000000001 925 570C925 639.0325 885.0799999999999 698.6985 827.0500000000001 727.1825L854.81 824.3395z" /><glyph glyph-name="shield-line"
            unicode="&#xF108;"
            horiz-adv-x="1200" d="M189.1535 878.701L600 970L1010.845 878.701C1033.725 873.617 1050 853.3265 1050 829.8915V330.555C1050 230.25 999.8699999999998 136.5800000000001 916.41 80.9400000000001L600 -130L283.5900000000001 80.9400000000001C200.1305 136.5800000000001 150 230.25 150 330.555V829.8915C150 853.3265 166.2765 873.617 189.1535 878.701zM250 789.783V330.555C250 263.685 283.42 201.24 339.06 164.145L600 -9.8150000000001L860.94 164.145C916.58 201.24 950 263.685 950 330.555V789.783L600 867.5605L250 789.783z" /><glyph glyph-name="shield-fill"
            unicode="&#xF103;"
            horiz-adv-x="1200" d="M189.1535 878.701L600 970L1010.845 878.701C1033.725 873.617 1050 853.3265 1050 829.8915V330.555C1050 230.25 999.8699999999998 136.5800000000001 916.41 80.9400000000001L600 -130L283.5900000000001 80.9400000000001C200.1305 136.5800000000001 150 230.25 150 330.555V829.8915C150 853.3265 166.2765 873.617 189.1535 878.701z" /><glyph glyph-name="rocket-line"
            unicode="&#xF096;"
            horiz-adv-x="1200" d="M250.0002777388664 382.3041845632545C250.0002777388664 636.7001845632545 395.1322777388664 854.1191845632544 600.0012777388663 941.3996845632544C804.8662777388664 854.1191845632544 950.0012777388664 636.7001845632545 950.0012777388664 382.3041845632545C950.0012777388664 341.1541845632545 946.2012777388665 300.9791845632544 938.9712777388664 262.1641845632545L1035.9912777388663 170.5341845632545C1044.2462777388662 162.7341845632544 1046.2112777388663 150.3541845632545 1040.7712777388663 140.3841845632545L916.0012777388664 -88.3658154367455C909.3862777388664 -100.4858154367456 894.2012777388665 -104.9558154367456 882.0812777388664 -98.3408154367456C879.9862777388663 -97.2008154367455 878.0612777388664 -95.7608154367455 876.3762777388664 -94.0708154367454L764.6462777388664 17.6591845632545C755.2662777388664 27.0341845632545 742.5512777388664 32.3041845632545 729.2912777388664 32.3041845632545H470.7107777388663C457.4497777388664 32.3041845632545 444.7322777388664 27.0341845632545 435.3552777388664 17.6591845632545L323.6257777388663 -94.0708154367454C313.8627777388664 -103.8358154367455 298.0337777388663 -103.8358154367455 288.2702777388664 -94.0708154367454C286.5822777388664 -92.3858154367455 285.1442777388663 -90.4608154367455 284.0007777388664 -88.3658154367455L159.2272777388664 140.3841845632545C153.7897777388664 150.3541845632545 155.7532777388664 162.7341845632544 164.0087777388664 170.5341845632545L261.0282777388664 262.1641845632545C253.7967777388664 300.9791845632544 250.0002777388664 341.1541845632545 250.0002777388664 382.3041845632545zM323.7922777388664 47.5141845632545L364.6447777388663 88.3691845632545C392.7752777388664 116.4991845632545 430.9282777388665 132.3041845632545 470.7107777388663 132.3041845632545H729.2912777388664C769.0712777388663 132.3041845632545 807.2262777388664 116.4991845632545 835.3562777388664 88.3691845632545L876.2062777388664 47.5141845632545L925.3012777388664 137.5241845632546L870.3112777388664 189.4591845632545C845.6062777388664 212.7941845632545 834.4412777388665 247.0741845632545 840.6612777388664 280.4791845632544C846.8512777388663 313.6891845632545 850.0012777388664 347.7441845632544 850.0012777388664 382.3041845632545C850.0012777388664 575.7806845632546 750.2462777388664 747.3166845632544 600.0012777388663 830.2826845632545C449.7522777388664 747.3166845632544 350.0002777388663 575.7806845632546 350.0002777388663 382.3041845632545C350.0002777388663 347.7441845632544 353.1487777388664 313.6891845632545 359.3367777388663 280.4791845632544C365.5602777388664 247.0741845632545 354.3942777388663 212.7941845632545 329.6902777388664 189.4591845632545L274.6977777388663 137.5241845632546L323.7922777388664 47.5141845632545zM600.0012777388663 382.3041845632545C544.7712777388664 382.3041845632545 500.0002777388663 427.0741845632545 500.0002777388663 482.3041845632545C500.0002777388663 537.5306845632545 544.7712777388664 582.3021845632544 600.0012777388663 582.3021845632544C655.2262777388664 582.3021845632544 700.0012777388663 537.5306845632545 700.0012777388663 482.3041845632545C700.0012777388663 427.0741845632545 655.2262777388664 382.3041845632545 600.0012777388663 382.3041845632545z" /><glyph glyph-name="space-ship-2-fill"
            unicode="&#xF696;"
            horiz-adv-x="1200" d="M555.3615028075836 163.230217377609C574.8815028075836 182.7452173776089 606.5415028075837 182.7352173776089 626.0665028075838 163.230217377609C645.5915028075838 143.700217377609 645.5915028075838 112.0002173776089 626.0665028075838 92.4752173776089L484.1225028075836 -49.419782622391C464.5960028075836 -68.9447826223911 432.9440028075837 -68.9447826223911 413.4190028075837 -49.419782622391C393.9115028075837 -29.8947826223912 393.9020028075837 1.7652173776089 413.4190028075837 21.285217377609L555.3615028075836 163.230217377609zM466.4955028075836 357.1752173776089C486.0210028075837 376.680217377609 517.6765028075837 376.690217377609 537.1965028075838 357.1752173776089C556.7265028075838 337.650217377609 556.7265028075838 305.950217377609 537.1965028075838 286.4202173776089L254.3370028075837 3.6102173776089C234.8105028075837 -15.9147826223909 203.1595028075837 -15.9197826223913 183.6335028075837 3.6102173776089C164.1135028075837 23.1352173776089 164.1105028075837 54.7852173776089 183.6335028075837 74.3102173776089L466.4955028075836 357.1752173776089zM879.0465028075837 892.2367173776089C939.9365028075836 916.685717377609 1001.7615028075836 901.639217377609 1041.6915028075834 861.7192173776089C1081.6165028075836 821.7892173776089 1096.6565028075836 759.9662173776089 1072.2115028075837 699.071217377609L859.5115028075837 169.2352173776089C851.5665028075838 149.435217377609 831.8915028075837 136.8752173776089 810.5865028075837 137.9352173776089C789.2815028075837 139.0052173776089 771.0115028075837 153.480217377609 765.0815028075837 173.970217377609C737.2965028075837 270.0202173776089 686.6215028075836 358.970217377609 612.7865028075837 432.810217377609C538.9465028075837 506.6452173776089 449.9910028075837 557.272717377609 353.9465028075836 585.0572173776088C333.4625028075837 590.9897173776089 318.9870028075837 609.2667173776089 317.9110028075837 630.5652173776089C316.8425028075837 651.8697173776089 329.4195028075837 671.5347173776089 349.2100028075837 679.4912173776089L879.0465028075837 892.2367173776089zM272.5500028075836 446.040217377609C292.0765028075837 465.5652173776089 323.7285028075837 465.5652173776089 343.2530028075837 446.040217377609C362.7710028075837 426.5152173776089 362.7720028075837 394.865217377609 343.2530028075837 375.340217377609L201.3095028075837 233.3952173776089C181.7850028075837 213.8752173776088 150.1320028075837 213.8752173776088 130.6060028075837 233.3952173776089C111.0810028075837 252.9202173776089 111.0830028075837 284.570217377609 130.6060028075837 304.100217377609L272.5500028075836 446.040217377609z" /><glyph glyph-name="space-ship-2-line"
            unicode="&#xF697;"
            horiz-adv-x="1200" d="M555.3615028075836 163.2285299076223C574.8815028075836 182.7435299076223 606.5415028075837 182.7335299076223 626.0665028075838 163.2285299076223C645.5915028075838 143.7035299076224 645.5915028075838 112.0035299076223 626.0665028075838 92.4735299076223L484.1225028075836 -49.4214700923777C464.5960028075836 -68.9414700923776 432.9440028075837 -68.9464700923777 413.4190028075837 -49.4214700923777C393.9115028075837 -29.8914700923777 393.9020028075837 1.7635299076223 413.4190028075837 21.2835299076224L555.3615028075836 163.2285299076223zM466.4955028075836 357.1735299076223C486.0210028075837 376.6835299076224 517.6765028075837 376.6885299076224 537.1965028075838 357.1735299076223C556.7265028075838 337.6485299076224 556.7265028075838 305.9485299076224 537.1965028075838 286.4235299076223L254.3370028075837 3.6085299076223C234.8105028075837 -15.9164700923775 203.1595028075837 -15.9164700923775 183.6335028075837 3.6085299076223C164.1135028075837 23.1335299076223 164.1105028075837 54.7885299076223 183.6335028075837 74.3135299076222L466.4955028075836 357.1735299076223zM879.0465028075837 892.2365299076223C939.9365028075836 916.6855299076224 1001.7615028075836 901.6390299076222 1041.6915028075834 861.7190299076224C1081.6165028075836 821.7890299076223 1096.6565028075836 759.9660299076222 1072.2115028075837 699.0710299076222L859.5115028075837 169.2335299076223C851.5665028075838 149.4385299076224 831.8915028075837 136.8735299076223 810.5865028075837 137.9335299076223C789.2815028075837 139.0035299076223 771.0115028075837 153.4785299076223 765.0815028075837 173.9685299076223C737.2965028075837 270.0185299076223 686.6215028075836 358.9685299076224 612.7865028075837 432.8085299076224C538.9465028075837 506.6435299076223 449.9910028075837 557.2725299076224 353.9465028075836 585.0570299076223C333.4625028075837 590.9895299076225 318.9870028075837 609.2665299076223 317.9110028075837 630.5650299076224C316.8425028075837 651.8695299076223 329.4195028075837 671.5345299076223 349.2100028075837 679.4910299076223L879.0465028075837 892.2365299076223zM272.5500028075836 446.0435299076223C292.0765028075837 465.5635299076222 323.7285028075837 465.5685299076222 343.2530028075837 446.0435299076223C362.7710028075837 426.5185299076224 362.7720028075837 394.8635299076223 343.2530028075837 375.3385299076224L201.3095028075837 233.3935299076223C181.7850028075837 213.8735299076222 150.1320028075837 213.8735299076222 130.6060028075837 233.3935299076223C111.0810028075837 252.9185299076223 111.0830028075837 284.5735299076224 130.6060028075837 304.0985299076223L272.5500028075836 446.0435299076223zM970.9865028075837 791.0150299076224C959.5415028075836 802.4520299076223 940.2415028075836 809.0710299076222 916.3015028075836 799.4625299076224L503.3120028075837 633.6410299076224C568.6365028075837 600.8675299076224 629.5065028075837 557.4910299076223 683.4865028075836 503.5135299076223C737.4665028075838 449.5335299076223 780.8415028075838 388.6635299076223 813.6165028075837 323.3385299076224L979.4365028075836 736.2785299076222C989.0515028075838 760.2270299076224 982.4315028075838 779.5660299076224 970.9865028075837 791.0150299076224z" /><glyph glyph-name="rocket-fill"
            unicode="&#xF095;"
            horiz-adv-x="1200" d="M266.4998419572826 236.3508124446053C255.7233419572826 283.2208124446053 250.0003419572826 332.2758124446053 250.0003419572826 382.7958124446054C250.0003419572826 637.1918124446054 395.1328419572826 854.6108124446052 599.9983419572825 941.8913124446054C804.8683419572826 854.6108124446052 949.9983419572824 637.1918124446054 949.9983419572824 382.7958124446054C949.9983419572824 332.2758124446053 944.2783419572824 283.2208124446053 933.5033419572826 236.3508124446053L1034.5083419572827 146.5658124446055C1043.4933419572826 138.5808124446053 1045.5183419572827 125.3258124446053 1039.3333419572825 115.0158124446054L916.4733419572824 -89.7491875553946C909.3683419572826 -101.5891875553945 894.0133419572826 -105.4291875553947 882.1733419572824 -98.3241875553946C880.4233419572827 -97.2741875553945 878.8033419572826 -96.0091875553946 877.3583419572826 -94.5641875553946L764.6433419572825 18.1508124446054C755.2683419572825 27.5258124446054 742.5483419572824 32.7958124446054 729.2883419572825 32.7958124446054H470.7113419572825C457.4503419572825 32.7958124446054 444.7328419572826 27.5258124446054 435.3558419572825 18.1508124446054L322.6418419572826 -94.5641875553946C312.8783419572826 -104.3291875553945 297.0493419572826 -104.3291875553945 287.2863419572826 -94.5641875553946C285.8408419572826 -93.1191875553947 284.5783419572826 -91.5041875553947 283.5268419572826 -89.7491875553946L160.6658419572826 115.0158124446054C154.4803419572826 125.3258124446053 156.5088419572826 138.5808124446053 165.4943419572826 146.5658124446055L266.4998419572826 236.3508124446053zM599.9983419572825 382.7958124446054C655.2283419572825 382.7958124446054 699.9983419572825 427.5658124446054 699.9983419572825 482.7958124446054C699.9983419572825 538.0223124446054 655.2283419572825 582.7938124446052 599.9983419572825 582.7938124446052C544.7733419572826 582.7938124446052 499.9983419572826 538.0223124446054 499.9983419572826 482.7958124446054C499.9983419572826 427.5658124446054 544.7733419572826 382.7958124446054 599.9983419572825 382.7958124446054z" /><glyph glyph-name="time-line"
            unicode="&#xF20F;"
            horiz-adv-x="1200" d="M600 -80C323.8575 -80 100 143.86 100 420C100 696.1424999999999 323.8575 920 600 920C876.14 920 1100 696.1424999999999 1100 420C1100 143.86 876.14 -80 600 -80zM600 20C820.915 20 1000 199.085 1000 420C1000 640.914 820.915 820 600 820C379.086 820 200 640.914 200 420C200 199.085 379.086 20 600 20zM650 420H850V320H550V670H650V420z" /><glyph glyph-name="time-fill"
            unicode="&#xF20E;"
            horiz-adv-x="1200" d="M600 -80C323.8575 -80 100 143.86 100 420C100 696.1424999999999 323.8575 920 600 920C876.14 920 1100 696.1424999999999 1100 420C1100 143.86 876.14 -80 600 -80zM650 420V670H550V320H850V420H650z" /><glyph glyph-name="bar-chart-horizontal-line"
            unicode="&#xEA9D;"
            horiz-adv-x="1200" d="M575 870V770H125V870H575zM775 70V-30H125V70H775zM1075 470V370H125V470H1075z" /><glyph glyph-name="bar-chart-horizontal-fill"
            unicode="&#xEA9C;"
            horiz-adv-x="1200" d="M575 870V670H125V870H575zM775 170V-30H125V170H775zM1075 520V320H125V520H1075z" /><glyph glyph-name="bar-chart-2-line"
            unicode="&#xEA96;"
            horiz-adv-x="1200" d="M100 370H400V-30H100V370zM800 620H1100V-30H800V620zM450 870H750V-30H450V870zM200 270V70H300V270H200zM550 770V70H650V770H550zM900 520V70H1000V520H900z" /><glyph glyph-name="bar-chart-2-fill"
            unicode="&#xEA95;"
            horiz-adv-x="1200" d="M100 370H400V-30H100V370zM450 870H750V-30H450V870zM800 620H1100V-30H800V620z" /><glyph glyph-name="graduation-cap-fill"
            unicode="&#xF332;"
            horiz-adv-x="1200" d="M600 920.0025L0 570.0024999999999L600 220.0025L1100 511.6674999999999V145.0025H1200V570.0024999999999L600 920.0025zM199.951 345.4774999999999V119.9975C291.172 -1.4475 436.406 -80.0024999999999 599.99 -80.0024999999999C763.5699999999999 -80.0024999999999 908.805 -1.4475 1000.025 119.9975L1000.005 345.4374999999999L600.015 112.1074999999999L199.951 345.4774999999999z" /><glyph glyph-name="graduation-cap-line"
            unicode="&#xF333;"
            horiz-adv-x="1200" d="M200 453.335L0 570L600 920L1200 570V145H1100V511.665L1000 453.335V119.4350000000001L988.87 105.68C897.285 -7.4950000000001 757.09 -80 600 -80C442.9085 -80 302.7145 -7.4950000000001 211.1315 105.68L200 119.4350000000001V453.335zM300 395V155.4150000000001C373.3605 72.3 480.556 20 600 20C719.4449999999999 20 826.6400000000001 72.3 900 155.4150000000001V395L600 220L300 395zM198.4635 570L600 335.77L1001.535 570L600 804.2295L198.4635 570z" /><glyph glyph-name="team-line"
            unicode="&#xF1EE;"
            horiz-adv-x="1200" d="M600 470C738.07 470 850 358.0700000000001 850 220V-80H750V220C750 299.885 687.555 365.1850000000001 608.8149999999999 369.745L600 370C520.115 370 454.817 307.555 450.2545 228.815L450 220V-80H350V220C350 358.0700000000001 461.929 470 600 470zM275 320C288.9425 320 302.5045 318.37 315.505 315.29C307.101 290.3000000000001 301.9365 263.9 300.448 236.535L300 220L300.0350000000001 215.72C294.3785000000001 217.72 288.4105 219.0650000000001 282.223 219.655L275 220C236.015 220 203.9775 190.255 200.3435 152.225L200 145V-80H100V145C100 241.65 178.35 320 275 320zM925 320C1021.65 320 1100 241.65 1100 145V-80H1000V145C1000 183.9849999999999 970.255 216.02 932.225 219.655L925 220C916.24 220 907.83 218.5 900.015 215.74L900 220C900 253.285 894.58 285.3 884.575 315.2200000000001C897.495 318.37 911.055 320 925 320zM275 620C344.0355 620 400 564.0355 400 495C400 425.9650000000001 344.0355 370 275 370C205.9645 370 150 425.9650000000001 150 495C150 564.0355 205.9645 620 275 620zM925 620C994.035 620 1050 564.0355 1050 495C1050 425.9650000000001 994.035 370 925 370C855.9649999999999 370 800 425.9650000000001 800 495C800 564.0355 855.9649999999999 620 925 620zM275 520C261.193 520 250 508.8049999999999 250 495C250 481.1950000000001 261.193 470 275 470C288.807 470 300 481.1950000000001 300 495C300 508.8049999999999 288.807 520 275 520zM925 520C911.195 520 900 508.8049999999999 900 495C900 481.1950000000001 911.195 470 925 470C938.805 470 950 481.1950000000001 950 495C950 508.8049999999999 938.805 520 925 520zM600 920C710.4549999999999 920 800 830.457 800 720C800 609.543 710.4549999999999 520 600 520C489.543 520 400 609.543 400 720C400 830.457 489.543 920 600 920zM600 820C544.77 820 500 775.2284999999999 500 720C500 664.7715000000001 544.77 620 600 620C655.23 620 700 664.7715000000001 700 720C700 775.2284999999999 655.23 820 600 820z" /><glyph glyph-name="team-fill"
            unicode="&#xF1ED;"
            horiz-adv-x="1200" d="M600 520C710.4549999999999 520 800 609.543 800 720C800 830.457 710.4549999999999 920 600 920C489.543 920 400 830.457 400 720C400 609.543 489.543 520 600 520zM275 370C344.0355 370 400 425.9650000000001 400 495C400 564.0355 344.0355 620 275 620C205.9645 620 150 564.0355 150 495C150 425.9650000000001 205.9645 370 275 370zM1050 495C1050 425.9650000000001 994.035 370 925 370C855.9649999999999 370 800 425.9650000000001 800 495C800 564.0355 855.9649999999999 620 925 620C994.035 620 1050 564.0355 1050 495zM600 470C738.07 470 850 358.0700000000001 850 220V-80H350V220C350 358.0700000000001 461.929 470 600 470zM250 220.005C250 254.65 255.0335 288.12 264.409 319.7200000000001L255.932 318.98C168.2515 309.48 100 235.2100000000001 100 145.005V-79.9950000000001H250V220.005zM1100 -79.9950000000001V145.005C1100 238.11 1027.295 314.235 935.59 319.7200000000001C944.965 288.12 950 254.65 950 220.005V-79.9950000000001H1100z" /><glyph glyph-name="group-fill"
            unicode="&#xEDE2;"
            horiz-adv-x="1200" d="M75.41 -105C75.41 115.915 254.496 295 475.41 295C696.3249999999999 295 875.41 115.915 875.41 -105H75.41zM475.41 345C309.66 345 175.41 479.25 175.41 645C175.41 810.75 309.66 945 475.41 945C641.16 945 775.41 810.75 775.41 645C775.41 479.25 641.16 345 475.41 345zM843.55 233.3400000000001C997.82 193.9150000000001 1113.8049999999998 58.8249999999999 1124.5900000000001 -105H975.41C975.41 25.49 925.42 144.3050000000001 843.55 233.3400000000001zM742.415 347.1550000000001C824.05 420.39 875.41 526.6965 875.41 645C875.41 715.867 856.9799999999999 782.4295 824.655 840.1565C939.175 817.3015 1025.4099999999999 716.2674999999999 1025.4099999999999 595C1025.4099999999999 456.875 913.535 345 775.41 345C764.225 345 753.2099999999999 345.735 742.415 347.1550000000001z" /><glyph glyph-name="suitcase-line"
            unicode="&#xF1B9;"
            horiz-adv-x="1200" d="M750 870C777.615 870 800 847.614 800 820V720H1050C1077.615 720 1100 697.614 1100 670V20C1100 -7.615 1077.615 -30 1050 -30H150C122.386 -30 100 -7.615 100 20V670C100 697.614 122.386 720 150 720H400V820C400 847.614 422.386 870 450 870H750zM800 620H400V70H800V620zM200 620V70H300V620H200zM700 770H500V720H700V770zM900 620V70H1000V620H900z" /><glyph glyph-name="suitcase-fill"
            unicode="&#xF1B8;"
            horiz-adv-x="1200" d="M750 870C777.615 870 800 847.614 800 820V720H1050C1077.615 720 1100 697.614 1100 670V20C1100 -7.615 1077.615 -30 1050 -30H150C122.386 -30 100 -7.615 100 20V670C100 697.614 122.386 720 150 720H400V820C400 847.614 422.386 870 450 870H750zM400 620H300V70H400V620zM900 620H800V70H900V620zM700 770H500V720H700V770z" /><glyph glyph-name="certificate-line"
            unicode="&#xF67A;"
            horiz-adv-x="1200" d="M1000 920C1027.615 920 1050 897.614 1050 870V-30C1050 -57.615 1027.615 -80 1000 -80H200C172.386 -80 150 -57.615 150 -30V870C150 897.614 172.386 920 200 920H1000zM250 20H950V820H250V20zM673.485 421.125L837.745 397.245L718.895 281.375L746.925 117.7550000000001L600 195L453.0275 117.7550000000001L481.1035000000001 281.375L362.256 397.245L526.515 421.125L600 570L673.485 421.125zM800 620H400V720H800V620z" /><glyph glyph-name="certificate-fill"
            unicode="&#xF679;"
            horiz-adv-x="1200" d="M1000 920C1027.615 920 1050 897.614 1050 870V-30C1050 -57.615 1027.615 -80 1000 -80H200C172.386 -80 150 -57.615 150 -30V870C150 897.614 172.386 920 200 920H1000zM526.515 421.125L362.256 397.245L481.1035000000001 281.375L453.0275 117.7550000000001L600 195L746.925 117.7550000000001L718.895 281.375L837.745 397.245L673.485 421.125L600 570L526.515 421.125zM400 620H800V720H400V620z" /><glyph glyph-name="check-fill"
            unicode="&#xEB7A;"
            horiz-adv-x="1200" d="M493.934 260.9005L953.554 720.5195000000001L1024.2640000000001 649.809L493.934 119.4805L175.736 437.6755L246.447 508.3855L493.934 260.9005z" /><glyph glyph-name="shield-check-line"
            unicode="&#xF100;"
            horiz-adv-x="1200" d="M600 970L1010.845 878.701C1033.725 873.617 1050 853.3265 1050 829.8915V330.555C1050 230.25 999.8699999999998 136.5800000000001 916.41 80.9400000000001L600 -130L283.5900000000001 80.9400000000001C200.1305 136.5800000000001 150 230.25 150 330.555V829.8915C150 853.3265 166.2765 873.617 189.1535 878.701L600 970zM600 867.5605L250 789.783V330.555C250 263.685 283.42 201.24 339.06 164.145L600 -9.8150000000001L860.94 164.145C916.58 201.24 950 263.685 950 330.555V789.783L600 867.5605zM822.62 608.9085L893.3299999999999 538.1980000000001L575.13 220L362.9995 432.13L433.7105 502.845L575.0949999999999 361.4550000000001L822.62 608.9085z" /><glyph glyph-name="shield-check-fill"
            unicode="&#xF0FF;"
            horiz-adv-x="1200" d="M600 970L1010.845 878.701C1033.725 873.617 1050 853.3265 1050 829.8915V330.555C1050 230.25 999.8699999999998 136.5800000000001 916.41 80.9400000000001L600 -130L283.5900000000001 80.9400000000001C200.1305 136.5800000000001 150 230.25 150 330.555V829.8915C150 853.3265 166.2765 873.617 189.1535 878.701L600 970zM822.62 608.9085L575.0949999999999 361.4550000000001L433.7105 502.845L362.9995 432.13L575.13 220L893.3299999999999 538.1980000000001L822.62 608.9085z" /><glyph glyph-name="instagram-line"
            unicode="&#xEE66;"
            horiz-adv-x="1200" d="M600.0005 570C517.1305000000001 570 449.9995 502.845 449.9995 420C449.9995 337.135 517.1555 270 600.0005 270C682.8655000000001 270 750.0005 337.155 750.0005 420C750.0005 502.865 682.8455 570 600.0005 570zM600.0005 670C738.0205000000001 670 850.0005000000001 558.145 850.0005000000001 420C850.0005000000001 281.975 738.1455 170 600.0005 170C461.976 170 349.9995 281.855 349.9995 420C349.9995 558.0235 461.8545 670 600.0005 670zM925.0005000000002 682.5425C925.0005000000002 648.037 896.9605 620.0415 862.5005000000001 620.0415C827.9955 620.0415 800.0005000000001 648.08 800.0005000000001 682.5425C800.0005000000001 717.005 828.0355 745 862.5005000000001 745C896.9155 745.0435 925.0005000000002 717.005 925.0005000000002 682.5425zM600.0005 820C476.2755000000001 820 456.1095 819.6725 398.564 817.11C359.3580000000001 815.2695 333.077 809.9965 308.6585 800.5165C286.9585000000001 792.1005 271.305 782.0509999999999 254.6265 765.3725C237.884 748.63 227.8525 733.0185 219.4705 711.3085000000001C209.9685 686.8340000000001 204.697 660.5944999999999 202.8895 621.4425C200.302 566.24 199.9995 546.9475 199.9995 420C199.9995 296.275 200.327 276.11 202.889 218.5699999999999C204.7305 179.38 210.0105 153.0600000000001 219.4675 128.6999999999999C227.9055 106.97 237.9755000000001 91.28 254.5735 74.68C271.3820000000001 57.895 287.04 47.8299999999999 308.544 39.53C333.26 29.975 359.5245 24.6950000000001 398.5565000000001 22.89C453.7595 20.305 473.052 20 600.0005 20C723.7255 20 743.8905000000001 20.3299999999999 801.4304999999999 22.89C840.5355 24.725 866.8755 30.0199999999999 891.3005000000002 39.4699999999999C912.9705 47.885 928.7105 57.9899999999999 945.3205 74.5750000000001C962.1305 91.41 972.1755 107.03 980.4855000000002 128.585C990.0155 153.21 995.3055 179.51 997.1105000000002 218.555C999.6955000000002 273.76 1000.0005000000002 293.055 1000.0005000000002 420C1000.0005000000002 543.7239999999999 999.6705 563.8895 997.1105000000002 621.4314999999999C995.2705 660.547 989.9755 686.9255 980.5155 711.341C972.1205000000002 732.981 962.0355 748.6825 945.3705000000002 765.3725C928.6005 782.1424999999999 913.0305 792.1535 891.3055 800.529C866.8505000000001 810.023 840.5705 815.302 801.4405000000002 817.1095C746.2405000000001 819.6975 726.9455 820 600.0005 820zM600.0005 920C735.8305 920 752.7905000000001 919.5 806.1255 917C859.3305 914.5415 895.6255 906.125 927.5005 893.75C960.4555 881.0415 988.2905 863.875 1016.0805000000003 836.0835C1043.8305 808.2915 1061.0004999999999 780.375 1073.7504999999999 747.5C1086.0805 715.6665 1094.5004999999999 679.3335 1097.0004999999999 626.125C1099.3754999999999 572.7915 1100.0004999999999 555.8335 1100.0004999999999 420C1100.0004999999999 284.1650000000001 1099.5004999999999 267.2100000000001 1097.0004999999999 213.8750000000001C1094.5404999999998 160.6650000000001 1086.0805 124.3749999999999 1073.7504999999999 92.5C1061.0405 59.5400000000001 1043.8305 31.71 1016.0805000000003 3.915C988.2905 -23.835 960.3305 -41 927.5005 -53.75C895.6255 -66.085 859.3305 -74.5 806.1255 -77C752.7905000000001 -79.375 735.8305 -80 600.0005 -80C464.1659999999999 -80 447.2075 -79.5 393.8745 -77C340.6660000000001 -74.54 304.4160000000001 -66.085 272.4995 -53.75C239.5825 -41.04 211.7075 -23.835 183.916 3.915C156.1245 31.71 138.9995 59.665 126.2495 92.5C113.8745 124.3749999999999 105.4995 160.6650000000001 102.9995 213.8750000000001C100.6245 267.2100000000001 99.9995 284.1650000000001 99.9995 420C99.9995 555.8335 100.4995 572.7915 102.9995 626.125C105.4575 679.375 113.8745 715.625 126.2495 747.5C138.9575 780.4165 156.1245 808.2915 183.916 836.0835C211.7075 863.875 239.6245 881 272.4995 893.75C304.3745 906.125 340.6245 914.5 393.8745 917C447.2075 919.375 464.1659999999999 920 600.0005 920z" /><glyph glyph-name="instagram-fill"
            unicode="&#xEE65;"
            horiz-adv-x="1200" d="M651.373 919.98175C707.643 919.88875 736.1580000000001 919.59075 760.798 918.85725L770.503 918.54025C781.7130000000001 918.14175 792.773 917.64175 806.1080000000002 917.01675C859.3130000000001 914.55825 895.6080000000001 906.14175 927.483 893.76675C960.438 881.0582499999999 988.2730000000003 863.89175 1016.0630000000002 836.09975C1043.813 808.3082499999999 1060.9830000000002 780.3917499999999 1073.7330000000002 747.5167499999999C1086.063 715.6832499999999 1094.4830000000002 679.34975 1096.9830000000002 626.1417499999999C1097.5780000000002 612.8082499999999 1098.058 601.74825 1098.453 590.53625L1098.768 580.8317499999999C1099.498 556.19475 1099.833 527.67525 1099.938 471.40325L1099.978 434.12325C1099.983 429.5682500000001 1099.983 424.86825 1099.983 420.01825L1099.978 405.91325L1099.948 368.62825C1099.853 312.35825 1099.5580000000002 283.83825 1098.823 259.2032499999999L1098.5030000000002 249.49825C1098.1080000000002 238.28325 1097.6080000000002 227.22325 1096.9830000000002 213.8932500000001C1094.5230000000001 160.6832500000001 1086.063 124.3932499999999 1073.7330000000002 92.51825C1061.0230000000001 59.55825 1043.813 31.72325 1016.0630000000002 3.9332499999999C988.2730000000003 -23.8167500000001 960.3130000000002 -40.98175 927.483 -53.73175C895.6080000000001 -66.0667500000001 859.3130000000001 -74.48175 806.1080000000002 -76.98175C792.773 -77.5767500000001 781.7130000000001 -78.06175 770.503 -78.4517500000001L760.798 -78.7667500000001C736.1580000000001 -79.50175 707.643 -79.8317499999999 651.373 -79.9417499999998L614.0880000000001 -79.98175C609.5330000000001 -79.98175 604.8330000000001 -79.98175 599.9830000000001 -79.98175L585.878 -79.98175L548.5930000000001 -79.9467500000002C492.323 -79.85675 463.804 -79.5567499999998 439.1665000000001 -78.8217500000002L429.4625000000001 -78.5067500000001C418.2500000000001 -78.10675 407.1900000000001 -77.60675 393.857 -76.98175C340.6485 -74.5267499999999 304.3985 -66.0667500000001 272.4820000000001 -53.73175C239.5650000000001 -41.0267500000001 211.6900000000001 -23.8167500000001 183.8985000000001 3.9332499999999C156.1070000000001 31.72325 138.982 59.6832499999999 126.2320000000001 92.51825C113.8570000000001 124.3932499999999 105.482 160.6832500000001 102.9820000000001 213.8932500000001C102.3880000000001 227.22325 101.9035000000001 238.28325 101.5110000000001 249.49825L101.1965000000001 259.2032499999999C100.465 283.83825 100.1315000000001 312.35825 100.0235000000001 368.62825L100.0170000000001 471.40325C100.11 527.67525 100.4075 556.19475 101.1410000000001 580.8317499999999L101.4585 590.53625C101.8570000000001 601.74825 102.357 612.8082499999999 102.9820000000001 626.1417499999999C105.4400000000001 679.39175 113.8570000000001 715.6417499999999 126.2320000000001 747.5167499999999C138.9400000000001 780.4332499999999 156.1070000000001 808.3082499999999 183.8985000000001 836.09975C211.6900000000001 863.89175 239.6070000000001 881.01675 272.4820000000001 893.76675C304.3570000000001 906.14175 340.6070000000001 914.51675 393.857 917.01675C407.1900000000001 917.61025 418.2500000000001 918.09475 429.4625000000001 918.48725L439.1665000000001 918.80175C463.804 919.53375 492.323 919.86725 548.5930000000001 919.97525L651.373 919.98175zM599.9830000000001 670.01675C461.837 670.01675 349.9820000000001 558.0402499999999 349.9820000000001 420.01825C349.9820000000001 281.87325 461.9585000000001 170.01825 599.9830000000001 170.01825C738.128 170.01825 849.9830000000001 281.99325 849.9830000000001 420.01825C849.9830000000001 558.1617499999999 738.003 670.01675 599.9830000000001 670.01675zM599.9830000000001 570.0167499999999C682.8280000000001 570.0167499999999 749.9830000000001 502.88325 749.9830000000001 420.01825C749.9830000000001 337.17325 682.8480000000001 270.01825 599.9830000000001 270.01825C517.1380000000001 270.01825 449.9820000000001 337.14825 449.9820000000001 420.01825C449.9820000000001 502.86325 517.113 570.0167499999999 599.9830000000001 570.0167499999999zM862.4830000000001 745.01675C828.018 745.01675 799.9830000000001 717.0212499999999 799.9830000000001 682.5592499999999C799.9830000000001 648.0967499999999 827.978 620.0582499999999 862.4830000000001 620.0582499999999C896.943 620.0582499999999 924.983 648.0532499999999 924.983 682.5592499999999C924.983 717.0212499999999 896.8980000000001 745.05975 862.4830000000001 745.01675z" /><glyph glyph-name="twitter-x-line"
            unicode="&#xF3E6;"
            horiz-adv-x="1200" d="M524.4150000000001 287.4500000000001L762.5 -30H1112.5L719.585 493.885L1046.54 870H914.04L658.215 575.711L437.5 870H87.5L463.0429999999999 369.275L115.9575 -30H248.4585L524.4150000000001 287.4500000000001zM812.5 70L287.5 770H387.5L912.5 70H812.5z" /><glyph glyph-name="twitter-x-fill"
            unicode="&#xF3E5;"
            horiz-adv-x="1200" d="M884.3255 866.875L634.4905 581.2874999999999L418.478 866.875H105.6195L479.436 378.0650000000001L125.1445 -26.875H276.8530000000001L550.2955000000001 285.5700000000001L789.2705000000001 -26.875H1094.3805L704.7055 488.29L1035.9455 866.875H884.3255zM831.1155000000001 63.8750000000001L282.6735 780.8915H372.8280000000001L915.1255 63.8750000000001H831.1155000000001z" /><glyph glyph-name="linkedin-box-line"
            unicode="&#xEEB4;"
            horiz-adv-x="1200" d="M199.9995 870H1000.0005000000002C1027.6154999999999 870 1050.0004999999999 847.614 1050.0004999999999 820V20C1050.0004999999999 -7.615 1027.6154999999999 -30 1000.0005000000002 -30H199.9995C172.385 -30 149.9995 -7.615 149.9995 20V820C149.9995 847.614 172.385 870 199.9995 870zM249.9995 770V70H950.0005000000002V770H249.9995zM374.9995 570C333.578 570 299.9995 603.5785 299.9995 645C299.9995 686.4214999999999 333.578 720 374.9995 720C416.4205 720 449.9995 686.4214999999999 449.9995 645C449.9995 603.5785 416.4205 570 374.9995 570zM324.9995 520H424.9995V145H324.9995V520zM600.0005 498.525C629.2205 526.733 663.2755000000001 545 700.0005 545C803.5504999999999 545 875.0005000000001 461.0549999999999 875.0005000000001 357.5V145H775.0005V357.5C775.0005 405.8250000000001 735.8255 445 687.5005 445C639.1755 445 600.0005 405.8250000000001 600.0005 357.5V145H500.0005V520H600.0005V498.525z" /><glyph glyph-name="linkedin-box-fill"
            unicode="&#xEEB3;"
            horiz-adv-x="1200" d="M916.7605 103.0500000000001H783.4855V311.89C783.4855 361.6900000000001 782.4755 425.7750000000001 714.0355000000001 425.7750000000001C644.5505 425.7750000000001 633.9355 371.5850000000001 633.9355 315.5650000000001V103.0500000000001H500.6605000000001V532.5H628.6855V473.965H630.4105C648.3005 507.715 691.8005 543.3375 756.7855 543.3375C891.8254999999999 543.3375 916.8005 454.46 916.8005 338.775V103.0500000000001H916.7605zM350.1370000000001 591.2625C307.2370000000001 591.2625 272.7745 625.9875 272.7745 668.7C272.7745 711.375 307.2745 746.0625 350.1370000000001 746.0625C392.8870000000001 746.0625 427.5369999999999 711.375 427.5369999999999 668.7C427.5369999999999 625.9875 392.8495000000001 591.2625 350.1370000000001 591.2625zM416.962 103.0500000000001H283.312V532.5H416.962V103.0500000000001zM983.4355 870H216.412C179.6995 870 149.9995 840.975 149.9995 805.1625V34.835C149.9995 -1.0100000000001 179.6995 -30 216.412 -30H983.3255C1020.0005 -30 1050.0004999999999 -1.0100000000001 1050.0004999999999 34.835V805.1625C1050.0004999999999 840.975 1020.0005 870 983.3255 870H983.4355z" /><glyph glyph-name="youtube-line"
            unicode="&#xF2D5;"
            horiz-adv-x="1200" d="M980.2955 670.259C976.4855 685.1524999999999 965.7105 696.3895 953.3705000000002 699.856C931.4455 705.969 825.0005000000001 720 600.0005 720C374.9995 720 268.5765 705.9635000000001 246.563 699.8385000000001C234.3385 696.4385 223.5655 685.2035000000001 219.7055 670.259C214.2655 649.0385 199.9995 560.2025 199.9995 420C199.9995 279.8 214.2655 190.96 219.7205 169.6800000000001C223.5135 154.845 234.2885 143.61 246.576 140.1599999999999C268.5765 134.035 374.9995 120 600.0005 120C825.0005000000001 120 931.4455 134.03 953.4355 140.1599999999999C965.6605 143.56 976.4355 154.7950000000001 980.2955 169.7400000000001C985.7354999999998 190.96 1000.0005000000002 280 1000.0005000000002 420C1000.0005000000002 560 985.7354999999998 649.0385 980.2955 670.259zM1077.1605 695.091C1100.0004999999999 606 1100.0004999999999 420 1100.0004999999999 420C1100.0004999999999 420 1100.0004999999999 234 1077.1605 144.9100000000001C1064.4354999999998 95.635 1027.3005 56.91 980.2305 43.8200000000001C894.8054999999999 20 600.0005 20 600.0005 20C600.0005 20 305.3690000000001 20 219.769 43.8200000000001C172.5235 57.09 135.39 95.8200000000001 122.8375 144.9100000000001C99.9995 234 99.9995 420 99.9995 420C99.9995 420 99.9995 606 122.8375 695.091C135.564 744.3634999999999 172.698 783.091 219.769 796.182C305.3690000000001 820 600.0005 820 600.0005 820C600.0005 820 894.8054999999999 820 980.2305 796.182C1027.4755 782.909 1064.6104999999998 744.182 1077.1605 695.091zM500.0005 245V595L800.0005000000001 420L500.0005 245z" /><glyph glyph-name="youtube-fill"
            unicode="&#xF2D4;"
            horiz-adv-x="1200" d="M612.2175000000001 819.9775C638.9225 819.8305 705.7375000000001 819.1845 776.7275000000001 816.3409999999999L801.8975000000002 815.2434999999999C873.3725 811.8595 944.7875 806.0785 980.2075 796.2025C1027.4525 782.93 1064.5875 744.2024999999999 1077.1375 695.1115C1097.1225 617.1569999999999 1099.6225000000002 465.0075000000001 1099.9325000000001 428.1874999999999L1099.9775 420.5574999999999L1099.9775 420.0224999999999C1099.9775 420.0224999999999 1099.9775 419.8375 1099.9775 419.4825L1099.9325000000001 411.8525C1099.6225000000002 375.0325000000001 1097.1225 222.8824999999999 1077.1375 144.9274999999999C1064.4125000000001 95.6575 1027.2775000000001 56.9275 980.2075 43.8375C944.7875 33.9624999999999 873.3725 28.1825 801.8975000000002 24.7974999999999L776.7275000000001 23.7025C705.7375000000001 20.8575000000001 638.9225 20.2125 612.2175000000001 20.0625L600.4975 20.0225L599.9775000000001 20.0225C599.9775000000001 20.0225 599.8025 20.0225 599.4575 20.0225L587.7475000000001 20.0625C531.2275000000001 20.3724999999999 294.9085 22.9275 219.7480000000001 43.8375C172.5025000000001 57.1125 135.3685000000001 95.8374999999999 122.816 144.9274999999999C102.8325 222.8824999999999 100.3345 375.0325000000001 100.0225 411.8525V428.1874999999999C100.3345 465.0075000000001 102.8325 617.1569999999999 122.816 695.1115C135.5425 744.3844999999999 172.6765 783.1115 219.7480000000001 796.2025C294.9085 817.116 531.2275000000001 819.6664999999999 587.7475000000001 819.9775H612.2175000000001zM499.978 595.0204999999999V245.0224999999999L799.9775000000001 420.0224999999999L499.978 595.0204999999999z" /><glyph glyph-name="map-pin-2-line"
            unicode="&#xEF0A;"
            horiz-adv-x="1200" d="M599.999375 -123.1975L281.801375 194.9975C106.065375 370.7375 106.065375 655.6595 281.801375 831.3955C457.537375 1007.1315 742.459375 1007.1315 918.199375 831.3955C1093.9343749999998 655.6595 1093.9343749999998 370.7375 918.199375 194.9975L599.999375 -123.1975zM847.484375 265.7125C984.169375 402.3925 984.169375 624.0015 847.484375 760.685C710.804375 897.3685 489.195375 897.3685 352.511875 760.685C215.828375 624.0015 215.828375 402.3925 352.511875 265.7125L599.999375 18.2225000000001L847.484375 265.7125zM599.999375 413.1975C544.769375 413.1975 499.999375 457.9675 499.999375 513.1975C499.999375 568.426 544.769375 613.1975 599.999375 613.1975C655.229375 613.1975 699.999375 568.426 699.999375 513.1975C699.999375 457.9675 655.229375 413.1975 599.999375 413.1975z" /><glyph glyph-name="global-line"
            unicode="&#xEDCF;"
            horiz-adv-x="1200" d="M600 -80C323.8575 -80 100 143.86 100 420C100 696.1424999999999 323.8575 920 600 920C876.14 920 1100 696.1424999999999 1100 420C1100 143.86 876.14 -80 600 -80zM485.501 36.63C437.3715 138.7049999999999 407.8660000000001 251.29 401.3655 370H203.0945C222.9 211.175 335.8195 81.265 485.501 36.63zM501.535 370C509.0550000000001 248.06 543.89 133.515 600 32.4000000000001C656.11 133.515 690.9449999999999 248.06 698.465 370H501.535zM996.905 370H798.635C792.135 251.29 762.63 138.7049999999999 714.5 36.63C864.18 81.265 977.1000000000003 211.175 996.905 370zM203.0945 470H401.3655C407.8660000000001 588.7115000000001 437.3715 701.2965 485.501 803.3720000000001C335.8195 758.7335 222.9 628.825 203.0945 470zM501.535 470H698.465C690.9449999999999 591.939 656.11 706.4875 600 807.6005C543.89 706.4875 509.0550000000001 591.939 501.535 470zM714.5 803.3720000000001C762.63 701.2965 792.135 588.7115000000001 798.635 470H996.905C977.1000000000003 628.825 864.18 758.7335 714.5 803.3720000000001z" /><glyph glyph-name="mail-line"
            unicode="&#xEEF6;"
            horiz-adv-x="1200" d="M150 870H1050C1077.615 870 1100 847.614 1100 820V20C1100 -7.615 1077.615 -30 1050 -30H150C122.386 -30 100 -7.615 100 20V820C100 847.614 122.386 870 150 870zM1000 658.104L603.59 303.1L200 659.203V70H1000V658.104zM225.573 770L603.095 436.9L975.05 770H225.573z" /><glyph glyph-name="mail-fill"
            unicode="&#xEEF3;"
            horiz-adv-x="1200" d="M150 870H1050C1077.615 870 1100 847.614 1100 820V20C1100 -7.615 1077.615 -30 1050 -30H150C122.386 -30 100 -7.615 100 20V820C100 847.614 122.386 870 150 870zM603.0300000000001 435.855L282.361 708.115L217.639 631.885L603.655 304.145L982.72 632.192L917.28 707.808L603.0300000000001 435.855z" /><glyph glyph-name="smartphone-line"
            unicode="&#xF15A;"
            horiz-adv-x="1200" d="M350 820V20H850V820H350zM300 920H900C927.6149999999998 920 950 897.614 950 870V-30C950 -57.615 927.6149999999998 -80 900 -80H300C272.386 -80 250 -57.615 250 -30V870C250 897.614 272.386 920 300 920zM600 170C627.615 170 650 147.6149999999999 650 120C650 92.3850000000001 627.615 70 600 70C572.385 70 550 92.3850000000001 550 120C550 147.6149999999999 572.385 170 600 170z" /><glyph glyph-name="smartphone-fill"
            unicode="&#xF159;"
            horiz-adv-x="1200" d="M300 920H900C927.6149999999998 920 950 897.614 950 870V-30C950 -57.615 927.6149999999998 -80 900 -80H300C272.386 -80 250 -57.615 250 -30V870C250 897.614 272.386 920 300 920zM600 170C572.385 170 550 147.6149999999999 550 120C550 92.3850000000001 572.385 70 600 70C627.615 70 650 92.3850000000001 650 120C650 147.6149999999999 627.615 170 600 170z" /><glyph glyph-name="copyright-line"
            unicode="&#xEBE2;"
            horiz-adv-x="1200" d="M814.385 548.6134999999999C770.65 621.3245 690.975 670 600 670C461.9995 670 350 558.0005 350 420C350 282 461.9995 170 600 170C690.975 170 770.65 218.6750000000001 814.385 291.385L728.645 342.79C702.415 299.17 654.635 270 600 270C517.125 270 450 337.125 450 420C450 502.875 517.125 570 600 570C654.65 570 702.4549999999999 540.807 728.675 497.1600000000001L814.385 548.6134999999999zM1100 420C1100 696.001 876 920 600 920C323.999 920 100 696.001 100 420C100 144 323.999 -80 600 -80C876 -80 1100 144 1100 420zM200 420C200 641.002 378.998 820 600 820C821.0000000000001 820 1000 641.002 1000 420C1000 198.9999999999999 821.0000000000001 20 600 20C378.998 20 200 198.9999999999999 200 420z" /><glyph glyph-name="arrow-right-s-line"
            unicode="&#xEA6E;"
            horiz-adv-x="1200" d="M653.0345 419.9980000000001L405.5455000000001 667.4865000000001L476.2565 738.197L794.4545 419.9980000000001L476.2565 101.803L405.5455000000001 172.5130000000002L653.0345 419.9980000000001z" /><glyph glyph-name="github-line"
            unicode="&#xEDCB;"
            horiz-adv-x="1200" d="M315.6988669389475 102.9242398721783C300.7003669389475 112.9592398721784 287.7918669389475 125.7142398721783 272.6933669389475 143.7442398721783C267.2348669389475 150.2642398721784 245.1398669389476 177.9692398721784 249.4038669389476 172.6742398721784C226.2648669389475 201.4242398721784 211.6463669389475 214.7392398721782 196.5763669389475 220.1442398721783C170.5833669389475 229.4642398721785 157.0683669389475 258.0942398721784 166.3903669389475 284.0842398721784C175.7123669389475 310.0792398721784 204.3408669389475 323.5942398721784 230.3343669389476 314.2742398721785C267.9663669389476 300.7742398721784 293.4218669389475 277.5342398721785 327.7108669389475 234.8742398721785C323.0108669389475 240.7192398721784 344.6803669389476 213.5392398721784 349.3638669389475 207.9442398721783C358.8903669389475 196.5692398721784 365.8643669389475 189.6792398721784 371.3128669389476 186.0342398721784C381.5573669389475 179.1742398721784 400.7238669389476 176.2192398721784 428.8528669389476 179.0342398721784C430.0308669389476 198.1442398721784 433.5663669389475 216.6742398721784 438.9578669389475 233.7992398721784C290.5468669389475 270.0692398721784 206.5563669389475 365.8292398721784 206.5563669389475 553.6037398721784C206.5563669389475 615.5467398721784 225.0183669389475 671.3927398721784 259.4568669389476 718.1992398721783C248.5733669389476 762.8932398721784 250.2148669389475 816.9472398721783 274.5443669389475 877.7712398721784C280.1233669389476 891.7197398721784 291.6788669389475 902.4202398721784 306.0138669389476 906.9132398721785C310.1193669389476 908.1027398721784 312.3938669389476 908.6317398721784 316.4373669389476 909.2527398721784C356.5818669389476 915.4177398721783 413.2848669389475 900.7367398721784 487.2228669389475 854.4212398721784C530.5483669389475 864.6497398721784 575.9233669389475 869.8392398721784 621.5583669389475 869.8392398721784C667.1433669389476 869.8392398721784 712.4783669389476 864.6592398721783 755.7683669389476 854.4507398721784C829.5933669389474 901.0892398721784 886.4283669389476 915.7647398721784 926.8583669389474 909.2637398721783C931.0933669389476 908.5827398721784 934.7233669389478 907.6977398721784 937.7433669389474 906.7062398721783C951.7933669389474 902.0937398721784 963.0783669389476 891.4997398721783 968.5683669389476 877.7712398721784C992.8933669389476 816.9612398721785 994.5383669389475 762.9172398721784 983.6633669389475 718.2292398721784C1018.2083669389476 671.4207398721784 1036.5583669389475 615.9852398721783 1036.5583669389475 553.6037398721784C1036.5583669389475 365.7492398721784 952.8483669389474 270.3492398721784 804.4383669389474 233.9892398721784C810.6833669389475 213.2392398721785 813.9783669389476 190.0642398721784 813.9783669389476 164.9842398721785C813.9783669389476 131.7642398721784 813.8533669389476 100.0392398721784 813.6183669389475 64.4642398721784C813.5583669389475 54.9542398721784 813.4833669389475 44.7942398721784 813.3733669389476 29.1842398721784C832.1433669389476 25.0442398721784 847.6433669389476 10.2042398721784 851.6533669389476 -9.8557601278216C857.0683669389475 -36.9307601278216 839.5083669389476 -63.2757601278216 812.4283669389474 -68.6907601278216C755.4683669389474 -80.0807601278217 713.2633669389475 -42.1007601278217 713.2633669389475 7.5342398721783C713.2633669389475 12.0492398721783 713.2983669389475 18.5042398721784 713.3733669389476 29.8642398721783C713.4883669389476 45.5142398721783 713.5583669389475 55.6392398721783 713.6233669389476 65.1192398721783C713.8533669389476 100.4942398721784 713.9783669389476 132.0092398721783 713.9783669389476 164.9842398721785C713.9783669389476 199.8492398721784 704.8183669389475 222.5792398721783 692.6833669389475 233.0392398721784C659.6333669389476 261.5292398721785 676.3833669389476 315.7242398721784 719.7483669389476 320.5942398721784C868.0683669389475 337.2592398721785 936.5583669389476 394.7042398721784 936.5583669389476 553.6037398721784C936.5583669389476 601.3352398721785 920.9633669389476 640.8037398721784 890.9033669389476 673.8097398721784C878.0033669389475 687.9727398721784 874.3333669389474 708.2597398721783 881.4483669389476 726.0457398721784C889.7333669389475 746.7577398721784 893.2683669389476 773.8972398721784 886.2033669389475 806.7382398721784L885.7333669389475 806.6052398721785C861.1383669389475 799.6462398721784 830.2183669389474 784.5992398721784 792.8033669389474 759.1642398721784C780.5983669389475 750.8702398721783 765.3583669389475 748.3887398721783 751.1583669389474 752.3827398721784C710.1433669389476 763.9177398721783 666.0633669389474 769.8392398721784 621.5583669389475 769.8392398721784C577.0483669389475 769.8392398721784 532.9683669389476 763.9177398721783 491.9563669389475 752.3827398721784C477.8293669389475 748.4097398721784 462.6703669389475 750.8432398721784 450.4968669389475 759.0387398721783C412.8683669389476 784.3697398721783 381.7783669389475 799.3997398721784 357.0378669389476 806.4012398721784C349.8658669389476 773.7412398721784 353.4053669389475 746.6982398721783 361.6663669389476 726.0457398721784C368.7808669389475 708.2597398721783 365.1078669389475 687.9727398721784 352.2098669389476 673.8097398721784C322.3558669389476 641.0292398721784 306.5563669389475 600.9012398721784 306.5563669389475 553.6037398721784C306.5563669389475 395.0092398721784 375.1108669389476 337.1742398721784 522.6483669389474 320.5942398721784C565.9133669389475 315.7342398721784 582.7283669389476 261.7442398721784 549.8733669389476 233.1792398721783C540.2533669389475 224.8092398721784 528.4183669389475 196.5792398721784 528.4183669389475 164.9842398721785V7.5342398721783C528.4183669389475 -41.7807601278215 486.6763669389475 -78.7557601278217 430.4373669389475 -68.9107601278216C403.2363669389476 -64.1507601278216 385.0448669389475 -38.2407601278218 389.8048669389476 -11.0407601278218C393.4118669389476 9.5692398721784 409.1638669389476 25.0092398721783 428.4188669389476 29.2092398721782V78.6842398721783C382.9128669389476 75.6192398721783 345.3263669389476 83.0992398721784 315.6988669389475 102.9242398721783z" /><glyph glyph-name="shopping-cart-line"
            unicode="&#xF120;"
            horiz-adv-x="1200" d="M182.0195 245V845H82.0195V945H232.0195C259.634 945 282.0195 922.614 282.0195 895V295H903.9405L1003.9405 695H382.0195V795H1067.9805C1095.5955 795 1117.9805 772.614 1117.9805 745C1117.9805 740.912 1117.4805 736.8389999999999 1116.4855 732.873L991.4854999999998 232.875C985.9254999999998 210.615 965.9255 195 942.9805 195H232.0195C204.4055 195 182.0195 217.3850000000001 182.0195 245zM282.0195 -105C226.791 -105 182.0195 -60.23 182.0195 -5C182.0195 50.23 226.791 95 282.0195 95C337.248 95 382.0195 50.23 382.0195 -5C382.0195 -60.23 337.248 -105 282.0195 -105zM882.0205 -105C826.7905000000001 -105 782.0205 -60.23 782.0205 -5C782.0205 50.23 826.7905000000001 95 882.0205 95C937.2505 95 982.0205 50.23 982.0205 -5C982.0205 -60.23 937.2505 -105 882.0205 -105z" /><glyph glyph-name="shopping-cart-2-line"
            unicode="&#xF11E;"
            horiz-adv-x="1200" d="M239.6675250000001 718.22475L77.535475 880.3567499999999L148.246025 951.06725L310.378025 788.93525H1072.4645249999999C1100.0795249999999 788.93525 1122.4645249999999 766.5492499999999 1122.4645249999999 738.93525C1122.4645249999999 734.06925 1121.754525 729.22875 1120.359525 724.5677499999999L1000.359525 324.56775C994.014525 303.41775 974.544525 288.93275 952.464525 288.93275H339.667525V188.93275H889.669525V88.9327499999999H289.667525C262.053025 88.9327499999999 239.6675250000001 111.3227499999999 239.6675250000001 138.93275V718.22475zM339.667525 688.93525V388.93275H915.264525L1005.264525 688.93525H339.667525zM314.667525 -111.0672500000001C273.2460250000001 -111.0672500000001 239.6675250000001 -77.4872500000001 239.6675250000001 -36.0672500000001C239.6675250000001 5.3577499999999 273.2460250000001 38.9327499999999 314.667525 38.9327499999999C356.089025 38.9327499999999 389.667525 5.3577499999999 389.667525 -36.0672500000001C389.667525 -77.4872500000001 356.089025 -111.0672500000001 314.667525 -111.0672500000001zM914.669525 -111.0672500000001C873.244525 -111.0672500000001 839.669525 -77.4872500000001 839.669525 -36.0672500000001C839.669525 5.3577499999999 873.244525 38.9327499999999 914.669525 38.9327499999999C956.089525 38.9327499999999 989.669525 5.3577499999999 989.669525 -36.0672500000001C989.669525 -77.4872500000001 956.089525 -111.0672500000001 914.669525 -111.0672500000001z" /><glyph glyph-name="search-2-line"
            unicode="&#xF0CD;"
            horiz-adv-x="1200" d="M542.1575 927.8425C790.5575 927.8425 992.1575 726.2425 992.1575 477.8425C992.1575 229.4425 790.5575 27.8425 542.1575 27.8425C293.7575000000001 27.8425 92.1575 229.4425 92.1575 477.8425C92.1575 726.2425 293.7575000000001 927.8425 542.1575 927.8425zM542.1575 127.8425C735.5325 127.8425 892.1575 284.4675 892.1575 477.8425C892.1575 671.2175 735.5325 827.8425 542.1575 827.8425C348.7825000000001 827.8425 192.1575 671.2175 192.1575 477.8425C192.1575 284.4675 348.7825000000001 127.8425 542.1575 127.8425zM966.4225 124.2874999999999L1107.8425 -17.1324999999999L1037.1325 -87.8425L895.7125000000001 53.5775L966.4225 124.2874999999999z" /><glyph glyph-name="arrow-up-s-line"
            unicode="&#xEA78;"
            horiz-adv-x="1200" d="M599.99775 473.035L352.51275 225.545L281.80225 296.255L599.99775 614.4549999999999L918.19775 296.255L847.48775 225.545L599.99775 473.035z" /><glyph glyph-name="arrow-down-s-line"
            unicode="&#xEA4E;"
            horiz-adv-x="1200" d="M599.99775 366.9695L847.48775 614.4555L918.19775 543.745L599.99775 225.5445L281.80225 543.745L352.51275 614.4555L599.99775 366.9695z" /><glyph glyph-name="arrow-left-s-line"
            unicode="&#xEA64;"
            horiz-adv-x="1200" d="M546.9649999999999 419.9980000000001L794.4549999999999 172.5130000000002L723.7450000000001 101.803L405.545 419.9980000000001L723.7450000000001 738.197L794.4549999999999 667.4865000000001L546.9649999999999 419.9980000000001z" /><glyph glyph-name="star-s-fill"
            unicode="&#xF18C;"
            horiz-adv-x="1200" d="M599.9985 147.255L306.107 -32.255L386.012 302.725L124.4715 526.7635L467.7479999999999 554.284L599.9985 872.255L732.2535 554.284L1075.5285 526.7635L813.9884999999999 302.725L893.8935 -32.255L599.9985 147.255z" /><glyph glyph-name="reset-right-line"
            unicode="&#xF543;"
            horiz-adv-x="1200" d="M100 420C100 143.86 323.8575 -80 600 -80C876.14 -80 1100 143.86 1100 420C1100 696.1424999999999 876.14 920 600 920V820C820.915 820 1000 640.914 1000 420C1000 199.085 820.915 20 600 20C379.086 20 200 199.085 200 420C200 557.489 269.367 678.7764999999999 375.012 750.7745L375 620H475V920L175 920V820L299.959 820.0055C178.5375 728.7829999999999 100 583.5635 100 420z" /><glyph glyph-name="star-fill"
            unicode="&#xF186;"
            horiz-adv-x="1200" d="M600.0027249999999 74.7049999999999L247.330225 -122.705L326.096725 273.7100000000001L29.367275 548.115L430.719225 595.7020000000001L600.0027249999999 962.705L769.282725 595.7020000000001L1170.632725 548.115L873.9077249999999 273.7100000000001L952.672725 -122.705L600.0027249999999 74.7049999999999z" /></font>
</defs>
</svg>
