<svg xmlns="http://www.w3.org/2000/svg" xmlns:xlink="http://www.w3.org/1999/xlink" width="0" height="0" style="display:none;"><symbol viewBox="0 0 24 24" id="search-line"><path d="M18.031 16.6168L22.3137 20.8995L20.8995 22.3137L16.6168 18.031C15.0769 19.263 13.124 20 11 20C6.032 20 2 15.968 2 11C2 6.032 6.032 2 11 2C15.968 2 20 6.032 20 11C20 13.124 19.263 15.0769 18.031 16.6168ZM16.0247 15.8748C17.2475 14.6146 18 12.8956 18 11C18 7.1325 14.8675 4 11 4C7.1325 4 4 7.1325 4 11C4 14.8675 7.1325 18 11 18C12.8956 18 14.6146 17.2475 15.8748 16.0247L16.0247 15.8748Z"></path></symbol><symbol viewBox="0 0 24 24" id="sun-fill"><path d="M12 18C8.68629 18 6 15.3137 6 12C6 8.68629 8.68629 6 12 6C15.3137 6 18 8.68629 18 12C18 15.3137 15.3137 18 12 18ZM11 1H13V4H11V1ZM11 20H13V23H11V20ZM3.51472 4.92893L4.92893 3.51472L7.05025 5.63604L5.63604 7.05025L3.51472 4.92893ZM16.9497 18.364L18.364 16.9497L20.4853 19.0711L19.0711 20.4853L16.9497 18.364ZM19.0711 3.51472L20.4853 4.92893L18.364 7.05025L16.9497 5.63604L19.0711 3.51472ZM5.63604 16.9497L7.05025 18.364L4.92893 20.4853L3.51472 19.0711L5.63604 16.9497ZM23 11V13H20V11H23ZM4 11V13H1V11H4Z"></path></symbol><symbol viewBox="0 0 24 24" id="arrow-right-up-long-line"><path d="M5.63589 19.7784L4.22169 18.3644L15.657 6.92908L10.0712 6.92908V4.92908L19.0712 4.92908L19.0712 13.9291H17.0712L17.0712 8.34326L5.63589 19.7784Z"></path></symbol><symbol viewBox="0 0 24 24" id="arrow-right-long-line"><path d="M1.99974 13.0001L1.9996 11.0002L18.1715 11.0002L14.2218 7.05044L15.636 5.63623L22 12.0002L15.636 18.3642L14.2218 16.9499L18.1716 13.0002L1.99974 13.0001Z"></path></symbol><symbol viewBox="0 0 24 24" id="arrow-right-down-long-line"><path d="M4.2216 5.63589L5.63562 4.22168L17.0709 15.6569V10.0712H19.0709L19.0709 19.0712L10.0709 19.0712L10.0709 17.0712L15.6567 17.0712L4.2216 5.63589Z"></path></symbol><symbol viewBox="0 0 24 24" id="arrow-down-long-line"><path d="M13.0001 1.99974L11.0002 1.9996L11.0002 18.1715L7.05044 14.2218L5.63623 15.636L12.0002 22L18.3642 15.636L16.9499 14.2218L13.0002 18.1716L13.0001 1.99974Z"></path></symbol><symbol viewBox="0 0 24 24" id="arrow-left-down-long-line"><path d="M19.7784 5.63589L18.3644 4.22168L6.92908 15.6569L6.92908 10.0712H4.92908L4.92908 19.0712L13.9291 19.0712V17.0712L8.34326 17.0712L19.7784 5.63589Z"></path></symbol><symbol viewBox="0 0 24 24" id="arrow-left-long-line"><path d="M22.0003 13.0001L22.0004 11.0002L5.82845 11.0002L9.77817 7.05044L8.36396 5.63623L2 12.0002L8.36396 18.3642L9.77817 16.9499L5.8284 13.0002L22.0003 13.0001Z"></path></symbol><symbol viewBox="0 0 24 24" id="corner-right-up-line"><path d="M13.9999 19.0001L5.00003 19.0002L5 17.0002L11.9999 17.0001L12 6.8283L8.05027 10.778L6.63606 9.36381L13 2.99985L19.364 9.36381L17.9498 10.778L14 6.82825L13.9999 19.0001Z"></path></symbol><symbol viewBox="0 0 24 24" id="corner-up-left-line"><path d="M19.0001 10.0001L19.0003 19L17.0003 19L17.0002 12.0001L6.82833 12L10.7781 15.9498L9.36384 17.364L2.99988 11L9.36384 4.63605L10.7781 6.05026L6.82828 10L19.0001 10.0001Z"></path></symbol><symbol viewBox="0 0 24 24" id="corner-up-right-line"><path d="M4.99989 10.0001L4.99976 19L6.99976 19L6.99986 12.0001L17.1717 12L13.222 15.9498L14.6362 17.364L21.0001 11L14.6362 4.63605L13.222 6.05026L17.1717 10L4.99989 10.0001Z"></path></symbol><symbol viewBox="0 0 24 24" id="corner-right-down-line"><path d="M13.9998 5.00011L4.99991 4.99997L4.99988 6.99997L11.9998 7.00008L11.9999 17.1719L8.05015 13.2222L6.63594 14.6364L12.9999 21.0004L19.3639 14.6364L17.9496 13.2222L13.9999 17.172L13.9998 5.00011Z"></path></symbol><symbol viewBox="0 0 24 24" id="checkbox-line"><path d="M4 3H20C20.5523 3 21 3.44772 21 4V20C21 20.5523 20.5523 21 20 21H4C3.44772 21 3 20.5523 3 20V4C3 3.44772 3.44772 3 4 3ZM5 5V19H19V5H5ZM11.0026 16L6.75999 11.7574L8.17421 10.3431L11.0026 13.1716L16.6595 7.51472L18.0737 8.92893L11.0026 16Z"></path></symbol><symbol viewBox="0 0 24 24" id="checkbox-circle-line"><path d="M4 12C4 7.58172 7.58172 4 12 4C16.4183 4 20 7.58172 20 12C20 16.4183 16.4183 20 12 20C7.58172 20 4 16.4183 4 12ZM12 2C6.47715 2 2 6.47715 2 12C2 17.5228 6.47715 22 12 22C17.5228 22 22 17.5228 22 12C22 6.47715 17.5228 2 12 2ZM17.4571 9.45711L16.0429 8.04289L11 13.0858L8.20711 10.2929L6.79289 11.7071L11 15.9142L17.4571 9.45711Z"></path></symbol><symbol viewBox="0 0 24 24" id="check-line"><path d="M9.9997 15.1709L19.1921 5.97852L20.6063 7.39273L9.9997 17.9993L3.63574 11.6354L5.04996 10.2212L9.9997 15.1709Z"></path></symbol><symbol viewBox="0 0 24 24" id="add-line"><path d="M11 11V5H13V11H19V13H13V19H11V13H5V11H11Z"></path></symbol><symbol viewBox="0 0 24 24" id="add-fill"><path d="M11 11V5H13V11H19V13H13V19H11V13H5V11H11Z"></path></symbol><symbol viewBox="0 0 24 24" id="star-line"><path d="M12.0006 18.26L4.94715 22.2082L6.52248 14.2799L0.587891 8.7918L8.61493 7.84006L12.0006 0.5L15.3862 7.84006L23.4132 8.7918L17.4787 14.2799L19.054 22.2082L12.0006 18.26ZM12.0006 15.968L16.2473 18.3451L15.2988 13.5717L18.8719 10.2674L14.039 9.69434L12.0006 5.27502L9.96214 9.69434L5.12921 10.2674L8.70231 13.5717L7.75383 18.3451L12.0006 15.968Z"></path></symbol><symbol viewBox="0 0 24 24" id="code-s-slash-fill"><path d="M24 12L18.3431 17.6569L16.9289 16.2426L21.1716 12L16.9289 7.75736L18.3431 6.34315L24 12ZM2.82843 12L7.07107 16.2426L5.65685 17.6569L0 12L5.65685 6.34315L7.07107 7.75736L2.82843 12ZM9.78845 21H7.66009L14.2116 3H16.3399L9.78845 21Z"></path></symbol><symbol viewBox="0 0 24 24" id="code-s-slash-line"><path d="M24 12L18.3431 17.6569L16.9289 16.2426L21.1716 12L16.9289 7.75736L18.3431 6.34315L24 12ZM2.82843 12L7.07107 16.2426L5.65685 17.6569L0 12L5.65685 6.34315L7.07107 7.75736L2.82843 12ZM9.78845 21H7.66009L14.2116 3H16.3399L9.78845 21Z"></path></symbol><symbol viewBox="0 0 24 24" id="bookmark-2-fill"><path d="M5 2H19C19.5523 2 20 2.44772 20 3V22.1433C20 22.4194 19.7761 22.6434 19.5 22.6434C19.4061 22.6434 19.314 22.6168 19.2344 22.5669L12 18.0313L4.76559 22.5669C4.53163 22.7136 4.22306 22.6429 4.07637 22.4089C4.02647 22.3293 4 22.2373 4 22.1433V3C4 2.44772 4.44772 2 5 2ZM8 9V11H16V9H8Z"></path></symbol><symbol viewBox="0 0 24 24" id="megaphone-line"><path d="M9 17C9 17 16 18 19 21H20C20.5523 21 21 20.5523 21 20V13.937C21.8626 13.715 22.5 12.9319 22.5 12C22.5 11.0681 21.8626 10.285 21 10.063V4C21 3.44772 20.5523 3 20 3H19C16 6 9 7 9 7H5C3.89543 7 3 7.89543 3 9V15C3 16.1046 3.89543 17 5 17H6L7 22H9V17ZM11 8.6612C11.6833 8.5146 12.5275 8.31193 13.4393 8.04373C15.1175 7.55014 17.25 6.77262 19 5.57458V18.4254C17.25 17.2274 15.1175 16.4499 13.4393 15.9563C12.5275 15.6881 11.6833 15.4854 11 15.3388V8.6612ZM5 9H9V15H5V9Z"></path></symbol><symbol viewBox="0 0 24 24" id="megaphone-2-fill"><path d="M12.3096 20.0951C12.416 21.1598 11.6638 22.1195 10.6045 22.2708C9.66941 22.4042 8.76909 21.8636 8.44629 20.9759L7 17.0004H12L12.3096 20.0951ZM19.4453 2.03658C20.1099 1.59354 21 2.06991 21 2.8686V18.1312C21 18.9299 20.1099 19.4063 19.4453 18.9632L15 16.0004H7.5C4.46258 16.0004 2.00024 13.5377 2 10.5004C2 7.46285 4.46243 5.00043 7.5 5.00043H15L19.4453 2.03658Z"></path></symbol><symbol viewBox="0 0 24 24" id="megaphone-2-line"><path d="M12.3096 20.095C12.416 21.1597 11.6637 22.1194 10.6045 22.2707C9.66942 22.4041 8.76909 21.8635 8.44629 20.9758L7 16.9993H12L12.3096 20.095ZM19.4453 2.03645C20.1099 1.59342 21 2.06979 21 2.86848V18.1311C20.9997 18.9294 20.1097 19.4059 19.4453 18.9631L15 16.0003H7.5C4.46271 16.0003 2.00045 13.5374 2 10.5003C2 7.46275 4.46243 5.00031 7.5 5.00031H15L19.4453 2.03645ZM15.6055 7.0003H7.5C5.56704 7.0003 4.00008 8.56738 4 10.5003C4.00051 12.433 5.56752 14.0003 7.5 14.0003H15.6055L19 16.261V4.73664L15.6055 7.0003Z"></path></symbol><symbol viewBox="0 0 24 24" id="megaphone-fill"><path d="M21 10.063V4C21 3.44772 20.5523 3 20 3H19C17.0214 4.97864 13.3027 6.08728 11 6.61281V17.3872C13.3027 17.9127 17.0214 19.0214 19 21H20C20.5523 21 21 20.5523 21 20V13.937C21.8626 13.715 22.5 12.9319 22.5 12 22.5 11.0681 21.8626 10.285 21 10.063ZM5 7C3.89543 7 3 7.89543 3 9V15C3 16.1046 3.89543 17 5 17H6L7 22H9V7H5Z"></path></symbol><symbol viewBox="0 0 24 24" id="bar-chart-fill"><path d="M3 12H7V21H3V12ZM17 8H21V21H17V8ZM10 2H14V21H10V2Z"></path></symbol><symbol viewBox="0 0 24 24" id="cloud-line"><path d="M12 2C15.866 2 19 5.13401 19 9C19 9.11351 18.9973 9.22639 18.992 9.33857C21.3265 10.16 23 12.3846 23 15C23 18.3137 20.3137 21 17 21H7C3.68629 21 1 18.3137 1 15C1 12.3846 2.67346 10.16 5.00804 9.33857C5.0027 9.22639 5 9.11351 5 9C5 5.13401 8.13401 2 12 2ZM12 4C9.23858 4 7 6.23858 7 9C7 9.08147 7.00193 9.16263 7.00578 9.24344L7.07662 10.7309L5.67183 11.2252C4.0844 11.7837 3 13.2889 3 15C3 17.2091 4.79086 19 7 19H17C19.2091 19 21 17.2091 21 15C21 12.79 19.21 11 17 11C15.233 11 13.7337 12.1457 13.2042 13.7347L11.3064 13.1021C12.1005 10.7185 14.35 9 17 9C17 6.23858 14.7614 4 12 4Z"></path></symbol><symbol viewBox="0 0 24 24" id="group-line"><path d="M2 22C2 17.5817 5.58172 14 10 14C14.4183 14 18 17.5817 18 22H16C16 18.6863 13.3137 16 10 16C6.68629 16 4 18.6863 4 22H2ZM10 13C6.685 13 4 10.315 4 7C4 3.685 6.685 1 10 1C13.315 1 16 3.685 16 7C16 10.315 13.315 13 10 13ZM10 11C12.21 11 14 9.21 14 7C14 4.79 12.21 3 10 3C7.79 3 6 4.79 6 7C6 9.21 7.79 11 10 11ZM18.2837 14.7028C21.0644 15.9561 23 18.752 23 22H21C21 19.564 19.5483 17.4671 17.4628 16.5271L18.2837 14.7028ZM17.5962 3.41321C19.5944 4.23703 21 6.20361 21 8.5C21 11.3702 18.8042 13.7252 16 13.9776V11.9646C17.6967 11.7222 19 10.264 19 8.5C19 7.11935 18.2016 5.92603 17.041 5.35635L17.5962 3.41321Z"></path></symbol><symbol viewBox="0 0 24 24" id="shield-line"><path d="M3.78307 2.82598L12 1L20.2169 2.82598C20.6745 2.92766 21 3.33347 21 3.80217V13.7889C21 15.795 19.9974 17.6684 18.3282 18.7812L12 23L5.6718 18.7812C4.00261 17.6684 3 15.795 3 13.7889V3.80217C3 3.33347 3.32553 2.92766 3.78307 2.82598ZM5 4.60434V13.7889C5 15.1263 5.6684 16.3752 6.7812 17.1171L12 20.5963L17.2188 17.1171C18.3316 16.3752 19 15.1263 19 13.7889V4.60434L12 3.04879L5 4.60434Z"></path></symbol><symbol viewBox="0 0 24 24" id="shield-fill"><path d="M3.78307 2.82598L12 1L20.2169 2.82598C20.6745 2.92766 21 3.33347 21 3.80217V13.7889C21 15.795 19.9974 17.6684 18.3282 18.7812L12 23L5.6718 18.7812C4.00261 17.6684 3 15.795 3 13.7889V3.80217C3 3.33347 3.32553 2.92766 3.78307 2.82598Z"></path></symbol><symbol viewBox="0 0 24 24" id="rocket-line"><path d="M4.99958 12.9999C4.99958 7.91198 7.90222 3.5636 11.9996 1.81799C16.0969 3.5636 18.9996 7.91198 18.9996 12.9999C18.9996 13.8229 18.9236 14.6264 18.779 15.4027L20.7194 17.2353C20.8845 17.3913 20.9238 17.6389 20.815 17.8383L18.3196 22.4133C18.1873 22.6557 17.8836 22.7451 17.6412 22.6128C17.5993 22.59 17.5608 22.5612 17.5271 22.5274L15.2925 20.2928C15.1049 20.1053 14.8506 19.9999 14.5854 19.9999H9.41379C9.14857 19.9999 8.89422 20.1053 8.70668 20.2928L6.47209 22.5274C6.27683 22.7227 5.96025 22.7227 5.76498 22.5274C5.73122 22.4937 5.70246 22.4552 5.67959 22.4133L3.18412 17.8383C3.07537 17.6389 3.11464 17.3913 3.27975 17.2353L5.22014 15.4027C5.07551 14.6264 4.99958 13.8229 4.99958 12.9999ZM6.47542 19.6957L7.29247 18.8786C7.85508 18.316 8.61814 17.9999 9.41379 17.9999H14.5854C15.381 17.9999 16.1441 18.316 16.7067 18.8786L17.5237 19.6957L18.5056 17.8955L17.4058 16.8568C16.9117 16.3901 16.6884 15.7045 16.8128 15.0364C16.9366 14.3722 16.9996 13.6911 16.9996 12.9999C16.9996 9.13037 15.0045 5.69965 11.9996 4.04033C8.99462 5.69965 6.99958 9.13037 6.99958 12.9999C6.99958 13.6911 7.06255 14.3722 7.18631 15.0364C7.31078 15.7045 7.08746 16.3901 6.59338 16.8568L5.49353 17.8955L6.47542 19.6957ZM11.9996 12.9999C10.895 12.9999 9.99958 12.1045 9.99958 10.9999C9.99958 9.89537 10.895 8.99994 11.9996 8.99994C13.1041 8.99994 13.9996 9.89537 13.9996 10.9999C13.9996 12.1045 13.1041 12.9999 11.9996 12.9999Z"></path></symbol><symbol viewBox="0 0 24 24" id="space-ship-2-fill"><path d="M10.9491 17.2928C11.3395 16.9025 11.9727 16.9027 12.3632 17.2928C12.7537 17.6834 12.7537 18.3174 12.3632 18.7079L9.52432 21.5458C9.13379 21.9363 8.50075 21.9363 8.11025 21.5458C7.7201 21.1553 7.71991 20.5221 8.11025 20.1317L10.9491 17.2928ZM9.17178 13.4139C9.56229 13.0238 10.1954 13.0236 10.5858 13.4139C10.9764 13.8044 10.9764 14.4384 10.5858 14.829L4.92861 20.4852C4.53808 20.8757 3.90506 20.8758 3.51454 20.4852C3.12414 20.0947 3.12408 19.4617 3.51454 19.0712L9.17178 13.4139ZM17.4228 2.71267C18.6406 2.22369 19.8771 2.52462 20.6757 3.32302C21.4742 4.12162 21.775 5.35808 21.2861 6.57598L17.0321 17.1727C16.8732 17.5687 16.4797 17.8199 16.0536 17.7987C15.6275 17.7773 15.2621 17.4878 15.1435 17.078C14.5878 15.157 13.5743 13.378 12.0976 11.9012C10.6208 10.4245 8.84169 9.41195 6.9208 8.85626C6.51112 8.73761 6.22161 8.37207 6.20009 7.9461C6.17872 7.52001 6.43026 7.12671 6.82607 6.96758L17.4228 2.71267ZM5.29287 11.6366C5.6834 11.2461 6.31644 11.2461 6.70693 11.6366C7.09729 12.0271 7.09731 12.6601 6.70693 13.0506L3.86806 15.8895C3.47757 16.2799 2.84451 16.2799 2.45399 15.8895C2.06349 15.499 2.06353 14.866 2.45399 14.4754L5.29287 11.6366Z"></path></symbol><symbol viewBox="0 0 24 24" id="space-ship-2-line"><path d="M10.9491 17.2928C11.3395 16.9025 11.9727 16.9027 12.3632 17.2928C12.7537 17.6833 12.7537 18.3173 12.3632 18.7079L9.52432 21.5458C9.13379 21.9362 8.50075 21.9363 8.11025 21.5458C7.7201 21.1552 7.71991 20.5221 8.11025 20.1317L10.9491 17.2928ZM9.17178 13.4139C9.56229 13.0237 10.1954 13.0236 10.5858 13.4139C10.9764 13.8044 10.9764 14.4384 10.5858 14.8289L4.92861 20.4852C4.53808 20.8757 3.90506 20.8757 3.51454 20.4852C3.12414 20.0947 3.12408 19.4616 3.51454 19.0711L9.17178 13.4139ZM17.4228 2.71264C18.6406 2.22366 19.8771 2.52459 20.6757 3.32299C21.4742 4.12159 21.775 5.35805 21.2861 6.57595L17.0321 17.1727C16.8732 17.5686 16.4797 17.8199 16.0536 17.7987C15.6275 17.7773 15.2621 17.4878 15.1435 17.078C14.5878 15.157 13.5743 13.378 12.0976 11.9012C10.6208 10.4245 8.84169 9.41192 6.9208 8.85623C6.51112 8.73758 6.22161 8.37204 6.20009 7.94607C6.17872 7.51998 6.43026 7.12668 6.82607 6.96755L17.4228 2.71264ZM5.29287 11.6365C5.6834 11.2461 6.31644 11.246 6.70693 11.6365C7.09729 12.027 7.09731 12.6601 6.70693 13.0506L3.86806 15.8895C3.47757 16.2799 2.84451 16.2799 2.45399 15.8895C2.06349 15.499 2.06353 14.8659 2.45399 14.4754L5.29287 11.6365ZM19.2616 4.73707C19.0327 4.50833 18.6467 4.37595 18.1679 4.56812L9.90811 7.88455C11.2146 8.54002 12.432 9.40755 13.5116 10.4871C14.5912 11.5667 15.4587 12.7841 16.1142 14.0906L19.4306 5.8318C19.6229 5.35283 19.4905 4.96605 19.2616 4.73707Z"></path></symbol><symbol viewBox="0 0 24 24" id="rocket-fill"><path d="M5.33053 15.9288C5.115 14.9914 5.00054 14.0103 5.00054 12.9999C5.00054 7.91198 7.90319 3.5636 12.0005 1.81799C16.0979 3.5636 19.0005 7.91198 19.0005 12.9999C19.0005 14.0103 18.8861 14.9914 18.6706 15.9288L20.6907 17.7245C20.8704 17.8842 20.9109 18.1493 20.7872 18.3555L18.33 22.4508C18.1879 22.6876 17.8808 22.7644 17.644 22.6223C17.609 22.6013 17.5766 22.576 17.5477 22.5471L15.2934 20.2928C15.1059 20.1053 14.8515 19.9999 14.5863 19.9999H9.41476C9.14954 19.9999 8.89519 20.1053 8.70765 20.2928L6.45337 22.5471C6.2581 22.7424 5.94152 22.7424 5.74626 22.5471C5.71735 22.5182 5.6921 22.4859 5.67107 22.4508L3.21385 18.3555C3.09014 18.1493 3.13071 17.8842 3.31042 17.7245L5.33053 15.9288ZM12.0005 12.9999C13.1051 12.9999 14.0005 12.1045 14.0005 10.9999C14.0005 9.89537 13.1051 8.99994 12.0005 8.99994C10.896 8.99994 10.0005 9.89537 10.0005 10.9999C10.0005 12.1045 10.896 12.9999 12.0005 12.9999Z"></path></symbol><symbol viewBox="0 0 24 24" id="time-line"><path d="M12 22C6.47715 22 2 17.5228 2 12C2 6.47715 6.47715 2 12 2C17.5228 2 22 6.47715 22 12C22 17.5228 17.5228 22 12 22ZM12 20C16.4183 20 20 16.4183 20 12C20 7.58172 16.4183 4 12 4C7.58172 4 4 7.58172 4 12C4 16.4183 7.58172 20 12 20ZM13 12H17V14H11V7H13V12Z"></path></symbol><symbol viewBox="0 0 24 24" id="time-fill"><path d="M12 22C6.47715 22 2 17.5228 2 12C2 6.47715 6.47715 2 12 2C17.5228 2 22 6.47715 22 12C22 17.5228 17.5228 22 12 22ZM13 12V7H11V14H17V12H13Z"></path></symbol><symbol viewBox="0 0 24 24" id="bar-chart-horizontal-line"><path d="M12 3V5H3V3H12ZM16 19V21H3V19H16ZM22 11V13H3V11H22Z"></path></symbol><symbol viewBox="0 0 24 24" id="bar-chart-horizontal-fill"><path d="M12 3V7H3V3H12ZM16 17V21H3V17H16ZM22 10V14H3V10H22Z"></path></symbol><symbol viewBox="0 0 24 24" id="bar-chart-2-line"><path d="M2 13H8V21H2V13ZM16 8H22V21H16V8ZM9 3H15V21H9V3ZM4 15V19H6V15H4ZM11 5V19H13V5H11ZM18 10V19H20V10H18Z"></path></symbol><symbol viewBox="0 0 24 24" id="bar-chart-2-fill"><path d="M2 13H8V21H2V13ZM9 3H15V21H9V3ZM16 8H22V21H16V8Z"></path></symbol><symbol viewBox="0 0 24 24" id="graduation-cap-fill"><path d="M12 2 0 9 12 16 22 10.1667V17.5H24V9L12 2ZM3.99902 13.4905V18.0001C5.82344 20.429 8.72812 22.0001 11.9998 22.0001 15.2714 22.0001 18.1761 20.429 20.0005 18.0001L20.0001 13.4913 12.0003 18.1579 3.99902 13.4905Z"></path></symbol><symbol viewBox="0 0 24 24" id="graduation-cap-line"><path d="M4 11.3333L0 9L12 2L24 9V17.5H22V10.1667L20 11.3333V18.0113L19.7774 18.2864C17.9457 20.5499 15.1418 22 12 22C8.85817 22 6.05429 20.5499 4.22263 18.2864L4 18.0113V11.3333ZM6 12.5V17.2917C7.46721 18.954 9.61112 20 12 20C14.3889 20 16.5328 18.954 18 17.2917V12.5L12 16L6 12.5ZM3.96927 9L12 13.6846L20.0307 9L12 4.31541L3.96927 9Z"></path></symbol><symbol viewBox="0 0 24 24" id="team-line"><path d="M12 11C14.7614 11 17 13.2386 17 16V22H15V16C15 14.4023 13.7511 13.0963 12.1763 13.0051L12 13C10.4023 13 9.09634 14.2489 9.00509 15.8237L9 16V22H7V16C7 13.2386 9.23858 11 12 11ZM5.5 14C5.77885 14 6.05009 14.0326 6.3101 14.0942C6.14202 14.594 6.03873 15.122 6.00896 15.6693L6 16L6.0007 16.0856C5.88757 16.0456 5.76821 16.0187 5.64446 16.0069L5.5 16C4.7203 16 4.07955 16.5949 4.00687 17.3555L4 17.5V22H2V17.5C2 15.567 3.567 14 5.5 14ZM18.5 14C20.433 14 22 15.567 22 17.5V22H20V17.5C20 16.7203 19.4051 16.0796 18.6445 16.0069L18.5 16C18.3248 16 18.1566 16.03 18.0003 16.0852L18 16C18 15.3343 17.8916 14.694 17.6915 14.0956C17.9499 14.0326 18.2211 14 18.5 14ZM5.5 8C6.88071 8 8 9.11929 8 10.5C8 11.8807 6.88071 13 5.5 13C4.11929 13 3 11.8807 3 10.5C3 9.11929 4.11929 8 5.5 8ZM18.5 8C19.8807 8 21 9.11929 21 10.5C21 11.8807 19.8807 13 18.5 13C17.1193 13 16 11.8807 16 10.5C16 9.11929 17.1193 8 18.5 8ZM5.5 10C5.22386 10 5 10.2239 5 10.5C5 10.7761 5.22386 11 5.5 11C5.77614 11 6 10.7761 6 10.5C6 10.2239 5.77614 10 5.5 10ZM18.5 10C18.2239 10 18 10.2239 18 10.5C18 10.7761 18.2239 11 18.5 11C18.7761 11 19 10.7761 19 10.5C19 10.2239 18.7761 10 18.5 10ZM12 2C14.2091 2 16 3.79086 16 6C16 8.20914 14.2091 10 12 10C9.79086 10 8 8.20914 8 6C8 3.79086 9.79086 2 12 2ZM12 4C10.8954 4 10 4.89543 10 6C10 7.10457 10.8954 8 12 8C13.1046 8 14 7.10457 14 6C14 4.89543 13.1046 4 12 4Z"></path></symbol><symbol viewBox="0 0 24 24" id="team-fill"><path d="M12 10C14.2091 10 16 8.20914 16 6 16 3.79086 14.2091 2 12 2 9.79086 2 8 3.79086 8 6 8 8.20914 9.79086 10 12 10ZM5.5 13C6.88071 13 8 11.8807 8 10.5 8 9.11929 6.88071 8 5.5 8 4.11929 8 3 9.11929 3 10.5 3 11.8807 4.11929 13 5.5 13ZM21 10.5C21 11.8807 19.8807 13 18.5 13 17.1193 13 16 11.8807 16 10.5 16 9.11929 17.1193 8 18.5 8 19.8807 8 21 9.11929 21 10.5ZM12 11C14.7614 11 17 13.2386 17 16V22H7V16C7 13.2386 9.23858 11 12 11ZM5 15.9999C5 15.307 5.10067 14.6376 5.28818 14.0056L5.11864 14.0204C3.36503 14.2104 2 15.6958 2 17.4999V21.9999H5V15.9999ZM22 21.9999V17.4999C22 15.6378 20.5459 14.1153 18.7118 14.0056 18.8993 14.6376 19 15.307 19 15.9999V21.9999H22Z"></path></symbol><symbol viewBox="0 0 24 24" id="group-fill"><path d="M2 22C2 17.5817 5.58172 14 10 14C14.4183 14 18 17.5817 18 22H2ZM10 13C6.685 13 4 10.315 4 7C4 3.685 6.685 1 10 1C13.315 1 16 3.685 16 7C16 10.315 13.315 13 10 13ZM17.3628 15.2332C20.4482 16.0217 22.7679 18.7235 22.9836 22H20C20 19.3902 19.0002 17.0139 17.3628 15.2332ZM15.3401 12.9569C16.9728 11.4922 18 9.36607 18 7C18 5.58266 17.6314 4.25141 16.9849 3.09687C19.2753 3.55397 21 5.57465 21 8C21 10.7625 18.7625 13 16 13C15.7763 13 15.556 12.9853 15.3401 12.9569Z"></path></symbol><symbol viewBox="0 0 24 24" id="suitcase-line"><path d="M15 3C15.5523 3 16 3.44772 16 4V6H21C21.5523 6 22 6.44772 22 7V20C22 20.5523 21.5523 21 21 21H3C2.44772 21 2 20.5523 2 20V7C2 6.44772 2.44772 6 3 6H8V4C8 3.44772 8.44772 3 9 3H15ZM16 8H8V19H16V8ZM4 8V19H6V8H4ZM14 5H10V6H14V5ZM18 8V19H20V8H18Z"></path></symbol><symbol viewBox="0 0 24 24" id="suitcase-fill"><path d="M15 3C15.5523 3 16 3.44772 16 4V6H21C21.5523 6 22 6.44772 22 7V20C22 20.5523 21.5523 21 21 21H3C2.44772 21 2 20.5523 2 20V7C2 6.44772 2.44772 6 3 6H8V4C8 3.44772 8.44772 3 9 3H15ZM8 8H6V19H8V8ZM18 8H16V19H18V8ZM14 5H10V6H14V5Z"></path></symbol><symbol viewBox="0 0 24 24" id="certificate-line"><path d="M20 2C20.5523 2 21 2.44772 21 3V21C21 21.5523 20.5523 22 20 22H4C3.44772 22 3 21.5523 3 21V3C3 2.44772 3.44772 2 4 2H20ZM5 20H19V4H5V20ZM13.4697 11.9775L16.7549 12.4551L14.3779 14.7725L14.9385 18.0449L12 16.5L9.06055 18.0449L9.62207 14.7725L7.24512 12.4551L10.5303 11.9775L12 9L13.4697 11.9775ZM16 8H8V6H16V8Z"></path></symbol><symbol viewBox="0 0 24 24" id="certificate-fill"><path d="M20 2C20.5523 2 21 2.44772 21 3V21C21 21.5523 20.5523 22 20 22H4C3.44772 22 3 21.5523 3 21V3C3 2.44772 3.44772 2 4 2H20ZM10.5303 11.9775L7.24512 12.4551L9.62207 14.7725L9.06055 18.0449L12 16.5L14.9385 18.0449L14.3779 14.7725L16.7549 12.4551L13.4697 11.9775L12 9L10.5303 11.9775ZM8 8H16V6H8V8Z"></path></symbol><symbol viewBox="0 0 24 24" id="check-fill"><path d="M9.9997 15.1709L19.1921 5.97852L20.6063 7.39273L9.9997 17.9993L3.63574 11.6354L5.04996 10.2212L9.9997 15.1709Z"></path></symbol><symbol viewBox="0 0 24 24" id="shield-check-line"><path d="M12 1L20.2169 2.82598C20.6745 2.92766 21 3.33347 21 3.80217V13.7889C21 15.795 19.9974 17.6684 18.3282 18.7812L12 23L5.6718 18.7812C4.00261 17.6684 3 15.795 3 13.7889V3.80217C3 3.33347 3.32553 2.92766 3.78307 2.82598L12 1ZM12 3.04879L5 4.60434V13.7889C5 15.1263 5.6684 16.3752 6.7812 17.1171L12 20.5963L17.2188 17.1171C18.3316 16.3752 19 15.1263 19 13.7889V4.60434L12 3.04879ZM16.4524 8.22183L17.8666 9.63604L11.5026 16L7.25999 11.7574L8.67421 10.3431L11.5019 13.1709L16.4524 8.22183Z"></path></symbol><symbol viewBox="0 0 24 24" id="shield-check-fill"><path d="M12 1L20.2169 2.82598C20.6745 2.92766 21 3.33347 21 3.80217V13.7889C21 15.795 19.9974 17.6684 18.3282 18.7812L12 23L5.6718 18.7812C4.00261 17.6684 3 15.795 3 13.7889V3.80217C3 3.33347 3.32553 2.92766 3.78307 2.82598L12 1ZM16.4524 8.22183L11.5019 13.1709L8.67421 10.3431L7.25999 11.7574L11.5026 16L17.8666 9.63604L16.4524 8.22183Z"></path></symbol><symbol viewBox="0 0 24 24" id="instagram-line"><path d="M12.001 9C10.3436 9 9.00098 10.3431 9.00098 12C9.00098 13.6573 10.3441 15 12.001 15C13.6583 15 15.001 13.6569 15.001 12C15.001 10.3427 13.6579 9 12.001 9ZM12.001 7C14.7614 7 17.001 9.2371 17.001 12C17.001 14.7605 14.7639 17 12.001 17C9.24051 17 7.00098 14.7629 7.00098 12C7.00098 9.23953 9.23808 7 12.001 7ZM18.501 6.74915C18.501 7.43926 17.9402 7.99917 17.251 7.99917C16.5609 7.99917 16.001 7.4384 16.001 6.74915C16.001 6.0599 16.5617 5.5 17.251 5.5C17.9393 5.49913 18.501 6.0599 18.501 6.74915ZM12.001 4C9.5265 4 9.12318 4.00655 7.97227 4.0578C7.18815 4.09461 6.66253 4.20007 6.17416 4.38967C5.74016 4.55799 5.42709 4.75898 5.09352 5.09255C4.75867 5.4274 4.55804 5.73963 4.3904 6.17383C4.20036 6.66332 4.09493 7.18811 4.05878 7.97115C4.00703 9.0752 4.00098 9.46105 4.00098 12C4.00098 14.4745 4.00753 14.8778 4.05877 16.0286C4.0956 16.8124 4.2012 17.3388 4.39034 17.826C4.5591 18.2606 4.7605 18.5744 5.09246 18.9064C5.42863 19.2421 5.74179 19.4434 6.17187 19.6094C6.66619 19.8005 7.19148 19.9061 7.97212 19.9422C9.07618 19.9939 9.46203 20 12.001 20C14.4755 20 14.8788 19.9934 16.0296 19.9422C16.8117 19.9055 17.3385 19.7996 17.827 19.6106C18.2604 19.4423 18.5752 19.2402 18.9074 18.9085C19.2436 18.5718 19.4445 18.2594 19.6107 17.8283C19.8013 17.3358 19.9071 16.8098 19.9432 16.0289C19.9949 14.9248 20.001 14.5389 20.001 12C20.001 9.52552 19.9944 9.12221 19.9432 7.97137C19.9064 7.18906 19.8005 6.66149 19.6113 6.17318C19.4434 5.74038 19.2417 5.42635 18.9084 5.09255C18.573 4.75715 18.2616 4.55693 17.8271 4.38942C17.338 4.19954 16.8124 4.09396 16.0298 4.05781C14.9258 4.00605 14.5399 4 12.001 4ZM12.001 2C14.7176 2 15.0568 2.01 16.1235 2.06C17.1876 2.10917 17.9135 2.2775 18.551 2.525C19.2101 2.77917 19.7668 3.1225 20.3226 3.67833C20.8776 4.23417 21.221 4.7925 21.476 5.45C21.7226 6.08667 21.891 6.81333 21.941 7.8775C21.9885 8.94417 22.001 9.28333 22.001 12C22.001 14.7167 21.991 15.0558 21.941 16.1225C21.8918 17.1867 21.7226 17.9125 21.476 18.55C21.2218 19.2092 20.8776 19.7658 20.3226 20.3217C19.7668 20.8767 19.2076 21.22 18.551 21.475C17.9135 21.7217 17.1876 21.89 16.1235 21.94C15.0568 21.9875 14.7176 22 12.001 22C9.28431 22 8.94514 21.99 7.87848 21.94C6.81431 21.8908 6.08931 21.7217 5.45098 21.475C4.79264 21.2208 4.23514 20.8767 3.67931 20.3217C3.12348 19.7658 2.78098 19.2067 2.52598 18.55C2.27848 17.9125 2.11098 17.1867 2.06098 16.1225C2.01348 15.0558 2.00098 14.7167 2.00098 12C2.00098 9.28333 2.01098 8.94417 2.06098 7.8775C2.11014 6.8125 2.27848 6.0875 2.52598 5.45C2.78014 4.79167 3.12348 4.23417 3.67931 3.67833C4.23514 3.1225 4.79348 2.78 5.45098 2.525C6.08848 2.2775 6.81348 2.11 7.87848 2.06C8.94514 2.0125 9.28431 2 12.001 2Z"></path></symbol><symbol viewBox="0 0 24 24" id="instagram-fill"><path d="M13.0281 2.00073C14.1535 2.00259 14.7238 2.00855 15.2166 2.02322L15.4107 2.02956C15.6349 2.03753 15.8561 2.04753 16.1228 2.06003C17.1869 2.1092 17.9128 2.27753 18.5503 2.52503C19.2094 2.7792 19.7661 3.12253 20.3219 3.67837C20.8769 4.2342 21.2203 4.79253 21.4753 5.45003C21.7219 6.0867 21.8903 6.81337 21.9403 7.87753C21.9522 8.1442 21.9618 8.3654 21.9697 8.58964L21.976 8.78373C21.9906 9.27647 21.9973 9.84686 21.9994 10.9723L22.0002 11.7179C22.0003 11.809 22.0003 11.903 22.0003 12L22.0002 12.2821L21.9996 13.0278C21.9977 14.1532 21.9918 14.7236 21.9771 15.2163L21.9707 15.4104C21.9628 15.6347 21.9528 15.8559 21.9403 16.1225C21.8911 17.1867 21.7219 17.9125 21.4753 18.55C21.2211 19.2092 20.8769 19.7659 20.3219 20.3217C19.7661 20.8767 19.2069 21.22 18.5503 21.475C17.9128 21.7217 17.1869 21.89 16.1228 21.94C15.8561 21.9519 15.6349 21.9616 15.4107 21.9694L15.2166 21.9757C14.7238 21.9904 14.1535 21.997 13.0281 21.9992L12.2824 22C12.1913 22 12.0973 22 12.0003 22L11.7182 22L10.9725 21.9993C9.8471 21.9975 9.27672 21.9915 8.78397 21.9768L8.58989 21.9705C8.36564 21.9625 8.14444 21.9525 7.87778 21.94C6.81361 21.8909 6.08861 21.7217 5.45028 21.475C4.79194 21.2209 4.23444 20.8767 3.67861 20.3217C3.12278 19.7659 2.78028 19.2067 2.52528 18.55C2.27778 17.9125 2.11028 17.1867 2.06028 16.1225C2.0484 15.8559 2.03871 15.6347 2.03086 15.4104L2.02457 15.2163C2.00994 14.7236 2.00327 14.1532 2.00111 13.0278L2.00098 10.9723C2.00284 9.84686 2.00879 9.27647 2.02346 8.78373L2.02981 8.58964C2.03778 8.3654 2.04778 8.1442 2.06028 7.87753C2.10944 6.81253 2.27778 6.08753 2.52528 5.45003C2.77944 4.7917 3.12278 4.2342 3.67861 3.67837C4.23444 3.12253 4.79278 2.78003 5.45028 2.52503C6.08778 2.27753 6.81278 2.11003 7.87778 2.06003C8.14444 2.04816 8.36564 2.03847 8.58989 2.03062L8.78397 2.02433C9.27672 2.00969 9.8471 2.00302 10.9725 2.00086L13.0281 2.00073ZM12.0003 7.00003C9.23738 7.00003 7.00028 9.23956 7.00028 12C7.00028 14.7629 9.23981 17 12.0003 17C14.7632 17 17.0003 14.7605 17.0003 12C17.0003 9.23713 14.7607 7.00003 12.0003 7.00003ZM12.0003 9.00003C13.6572 9.00003 15.0003 10.3427 15.0003 12C15.0003 13.6569 13.6576 15 12.0003 15C10.3434 15 9.00028 13.6574 9.00028 12C9.00028 10.3431 10.3429 9.00003 12.0003 9.00003ZM17.2503 5.50003C16.561 5.50003 16.0003 6.05994 16.0003 6.74918C16.0003 7.43843 16.5602 7.9992 17.2503 7.9992C17.9395 7.9992 18.5003 7.4393 18.5003 6.74918C18.5003 6.05994 17.9386 5.49917 17.2503 5.50003Z"></path></symbol><symbol viewBox="0 0 24 24" id="twitter-x-line"><path d="M10.4883 14.651L15.25 21H22.25L14.3917 10.5223L20.9308 3H18.2808L13.1643 8.88578L8.75 3H1.75L9.26086 13.0145L2.31915 21H4.96917L10.4883 14.651ZM16.25 19L5.75 5H7.75L18.25 19H16.25Z"></path></symbol><symbol viewBox="0 0 24 24" id="twitter-x-fill"><path d="M17.6874 3.0625L12.6907 8.77425L8.37045 3.0625H2.11328L9.58961 12.8387L2.50378 20.9375H5.53795L11.0068 14.6886L15.7863 20.9375H21.8885L14.095 10.6342L20.7198 3.0625H17.6874ZM16.6232 19.1225L5.65436 4.78217H7.45745L18.3034 19.1225H16.6232Z"></path></symbol><symbol viewBox="0 0 24 24" id="linkedin-box-line"><path d="M4.00098 3H20.001C20.5533 3 21.001 3.44772 21.001 4V20C21.001 20.5523 20.5533 21 20.001 21H4.00098C3.44869 21 3.00098 20.5523 3.00098 20V4C3.00098 3.44772 3.44869 3 4.00098 3ZM5.00098 5V19H19.001V5H5.00098ZM7.50098 9C6.67255 9 6.00098 8.32843 6.00098 7.5C6.00098 6.67157 6.67255 6 7.50098 6C8.3294 6 9.00098 6.67157 9.00098 7.5C9.00098 8.32843 8.3294 9 7.50098 9ZM6.50098 10H8.50098V17.5H6.50098V10ZM12.001 10.4295C12.5854 9.86534 13.2665 9.5 14.001 9.5C16.072 9.5 17.501 11.1789 17.501 13.25V17.5H15.501V13.25C15.501 12.2835 14.7175 11.5 13.751 11.5C12.7845 11.5 12.001 12.2835 12.001 13.25V17.5H10.001V10H12.001V10.4295Z"></path></symbol><symbol viewBox="0 0 24 24" id="linkedin-box-fill"><path d="M18.3362 18.339H15.6707V14.1622C15.6707 13.1662 15.6505 11.8845 14.2817 11.8845C12.892 11.8845 12.6797 12.9683 12.6797 14.0887V18.339H10.0142V9.75H12.5747V10.9207H12.6092C12.967 10.2457 13.837 9.53325 15.1367 9.53325C17.8375 9.53325 18.337 11.3108 18.337 13.6245V18.339H18.3362ZM7.00373 8.57475C6.14573 8.57475 5.45648 7.88025 5.45648 7.026C5.45648 6.1725 6.14648 5.47875 7.00373 5.47875C7.85873 5.47875 8.55173 6.1725 8.55173 7.026C8.55173 7.88025 7.85798 8.57475 7.00373 8.57475ZM8.34023 18.339H5.66723V9.75H8.34023V18.339ZM19.6697 3H4.32923C3.59498 3 3.00098 3.5805 3.00098 4.29675V19.7033C3.00098 20.4202 3.59498 21 4.32923 21H19.6675C20.401 21 21.001 20.4202 21.001 19.7033V4.29675C21.001 3.5805 20.401 3 19.6675 3H19.6697Z"></path></symbol><symbol viewBox="0 0 24 24" id="youtube-line"><path d="M19.6069 6.99482C19.5307 6.69695 19.3152 6.47221 19.0684 6.40288C18.6299 6.28062 16.501 6 12.001 6C7.50098 6 5.37252 6.28073 4.93225 6.40323C4.68776 6.47123 4.4723 6.69593 4.3951 6.99482C4.2863 7.41923 4.00098 9.19595 4.00098 12C4.00098 14.804 4.2863 16.5808 4.3954 17.0064C4.47126 17.3031 4.68676 17.5278 4.93251 17.5968C5.37252 17.7193 7.50098 18 12.001 18C16.501 18 18.6299 17.7194 19.0697 17.5968C19.3142 17.5288 19.5297 17.3041 19.6069 17.0052C19.7157 16.5808 20.001 14.8 20.001 12C20.001 9.2 19.7157 7.41923 19.6069 6.99482ZM21.5442 6.49818C22.001 8.28 22.001 12 22.001 12C22.001 12 22.001 15.72 21.5442 17.5018C21.2897 18.4873 20.547 19.2618 19.6056 19.5236C17.8971 20 12.001 20 12.001 20C12.001 20 6.10837 20 4.39637 19.5236C3.45146 19.2582 2.70879 18.4836 2.45774 17.5018C2.00098 15.72 2.00098 12 2.00098 12C2.00098 12 2.00098 8.28 2.45774 6.49818C2.71227 5.51273 3.45495 4.73818 4.39637 4.47636C6.10837 4 12.001 4 12.001 4C12.001 4 17.8971 4 19.6056 4.47636C20.5505 4.74182 21.2932 5.51636 21.5442 6.49818ZM10.001 15.5V8.5L16.001 12L10.001 15.5Z"></path></symbol><symbol viewBox="0 0 24 24" id="youtube-fill"><path d="M12.2439 4C12.778 4.00294 14.1143 4.01586 15.5341 4.07273L16.0375 4.09468C17.467 4.16236 18.8953 4.27798 19.6037 4.4755C20.5486 4.74095 21.2913 5.5155 21.5423 6.49732C21.942 8.05641 21.992 11.0994 21.9982 11.8358L21.9991 11.9884L21.9991 11.9991C21.9991 11.9991 21.9991 12.0028 21.9991 12.0099L21.9982 12.1625C21.992 12.8989 21.942 15.9419 21.5423 17.501C21.2878 18.4864 20.5451 19.261 19.6037 19.5228C18.8953 19.7203 17.467 19.8359 16.0375 19.9036L15.5341 19.9255C14.1143 19.9824 12.778 19.9953 12.2439 19.9983L12.0095 19.9991L11.9991 19.9991C11.9991 19.9991 11.9956 19.9991 11.9887 19.9991L11.7545 19.9983C10.6241 19.9921 5.89772 19.941 4.39451 19.5228C3.4496 19.2573 2.70692 18.4828 2.45587 17.501C2.0562 15.9419 2.00624 12.8989 2 12.1625V11.8358C2.00624 11.0994 2.0562 8.05641 2.45587 6.49732C2.7104 5.51186 3.45308 4.73732 4.39451 4.4755C5.89772 4.05723 10.6241 4.00622 11.7545 4H12.2439ZM9.99911 8.49914V15.4991L15.9991 11.9991L9.99911 8.49914Z"></path></symbol><symbol viewBox="0 0 24 24" id="map-pin-2-line"><path d="M12 23.7279L5.63604 17.364C2.12132 13.8492 2.12132 8.15076 5.63604 4.63604C9.15076 1.12132 14.8492 1.12132 18.364 4.63604C21.8787 8.15076 21.8787 13.8492 18.364 17.364L12 23.7279ZM16.9497 15.9497C19.6834 13.2161 19.6834 8.78392 16.9497 6.05025C14.2161 3.31658 9.78392 3.31658 7.05025 6.05025C4.31658 8.78392 4.31658 13.2161 7.05025 15.9497L12 20.8995L16.9497 15.9497ZM12 13C10.8954 13 10 12.1046 10 11C10 9.89543 10.8954 9 12 9C13.1046 9 14 9.89543 14 11C14 12.1046 13.1046 13 12 13Z"></path></symbol><symbol viewBox="0 0 24 24" id="global-line"><path d="M12 22C6.47715 22 2 17.5228 2 12C2 6.47715 6.47715 2 12 2C17.5228 2 22 6.47715 22 12C22 17.5228 17.5228 22 12 22ZM9.71002 19.6674C8.74743 17.6259 8.15732 15.3742 8.02731 13H4.06189C4.458 16.1765 6.71639 18.7747 9.71002 19.6674ZM10.0307 13C10.1811 15.4388 10.8778 17.7297 12 19.752C13.1222 17.7297 13.8189 15.4388 13.9693 13H10.0307ZM19.9381 13H15.9727C15.8427 15.3742 15.2526 17.6259 14.29 19.6674C17.2836 18.7747 19.542 16.1765 19.9381 13ZM4.06189 11H8.02731C8.15732 8.62577 8.74743 6.37407 9.71002 4.33256C6.71639 5.22533 4.458 7.8235 4.06189 11ZM10.0307 11H13.9693C13.8189 8.56122 13.1222 6.27025 12 4.24799C10.8778 6.27025 10.1811 8.56122 10.0307 11ZM14.29 4.33256C15.2526 6.37407 15.8427 8.62577 15.9727 11H19.9381C19.542 7.8235 17.2836 5.22533 14.29 4.33256Z"></path></symbol><symbol viewBox="0 0 24 24" id="mail-line"><path d="M3 3H21C21.5523 3 22 3.44772 22 4V20C22 20.5523 21.5523 21 21 21H3C2.44772 21 2 20.5523 2 20V4C2 3.44772 2.44772 3 3 3ZM20 7.23792L12.0718 14.338L4 7.21594V19H20V7.23792ZM4.51146 5L12.0619 11.662L19.501 5H4.51146Z"></path></symbol><symbol viewBox="0 0 24 24" id="mail-fill"><path d="M3 3H21C21.5523 3 22 3.44772 22 4V20C22 20.5523 21.5523 21 21 21H3C2.44772 21 2 20.5523 2 20V4C2 3.44772 2.44772 3 3 3ZM12.0606 11.6829L5.64722 6.2377L4.35278 7.7623L12.0731 14.3171L19.6544 7.75616L18.3456 6.24384L12.0606 11.6829Z"></path></symbol><symbol viewBox="0 0 24 24" id="smartphone-line"><path d="M7 4V20H17V4H7ZM6 2H18C18.5523 2 19 2.44772 19 3V21C19 21.5523 18.5523 22 18 22H6C5.44772 22 5 21.5523 5 21V3C5 2.44772 5.44772 2 6 2ZM12 17C12.5523 17 13 17.4477 13 18C13 18.5523 12.5523 19 12 19C11.4477 19 11 18.5523 11 18C11 17.4477 11.4477 17 12 17Z"></path></symbol><symbol viewBox="0 0 24 24" id="smartphone-fill"><path d="M6 2H18C18.5523 2 19 2.44772 19 3V21C19 21.5523 18.5523 22 18 22H6C5.44772 22 5 21.5523 5 21V3C5 2.44772 5.44772 2 6 2ZM12 17C11.4477 17 11 17.4477 11 18C11 18.5523 11.4477 19 12 19C12.5523 19 13 18.5523 13 18C13 17.4477 12.5523 17 12 17Z"></path></symbol><symbol viewBox="0 0 24 24" id="copyright-line"><path d="M16.2877 9.42773C15.413 7.97351 13.8195 7 12 7 9.23999 7 7 9.23999 7 12 7 14.76 9.23999 17 12 17 13.8195 17 15.413 16.0265 16.2877 14.5723L14.5729 13.5442C14.0483 14.4166 13.0927 15 12 15 10.3425 15 9 13.6575 9 12 9 10.3425 10.3425 9 12 9 13.093 9 14.0491 9.58386 14.5735 10.4568L16.2877 9.42773ZM22 12C22 6.47998 17.52 2 12 2 6.47998 2 2 6.47998 2 12 2 17.52 6.47998 22 12 22 17.52 22 22 17.52 22 12ZM4 12C4 7.57996 7.57996 4 12 4 16.42 4 20 7.57996 20 12 20 16.42 16.42 20 12 20 7.57996 20 4 16.42 4 12Z"></path></symbol><symbol viewBox="0 0 24 24" id="arrow-right-s-line"><path d="M13.1717 12.0007L8.22192 7.05093L9.63614 5.63672L16.0001 12.0007L9.63614 18.3646L8.22192 16.9504L13.1717 12.0007Z"></path></symbol><symbol viewBox="0 0 24 24" id="github-line"><path d="M5.88401 18.6533C5.58404 18.4526 5.32587 18.1975 5.0239 17.8369C4.91473 17.7065 4.47283 17.1524 4.55811 17.2583C4.09533 16.6833 3.80296 16.417 3.50156 16.3089C2.9817 16.1225 2.7114 15.5499 2.89784 15.0301C3.08428 14.5102 3.65685 14.2399 4.17672 14.4263C4.92936 14.6963 5.43847 15.1611 6.12425 16.0143C6.03025 15.8974 6.46364 16.441 6.55731 16.5529C6.74784 16.7804 6.88732 16.9182 6.99629 16.9911C7.20118 17.1283 7.58451 17.1874 8.14709 17.1311C8.17065 16.7489 8.24136 16.3783 8.34919 16.0358C5.38097 15.3104 3.70116 13.3952 3.70116 9.63971C3.70116 8.40085 4.0704 7.28393 4.75917 6.3478C4.5415 5.45392 4.57433 4.37284 5.06092 3.15636C5.1725 2.87739 5.40361 2.66338 5.69031 2.57352C5.77242 2.54973 5.81791 2.53915 5.89878 2.52673C6.70167 2.40343 7.83573 2.69705 9.31449 3.62336C10.181 3.41879 11.0885 3.315 12.0012 3.315C12.9129 3.315 13.8196 3.4186 14.6854 3.62277C16.1619 2.69 17.2986 2.39649 18.1072 2.52651C18.1919 2.54013 18.2645 2.55783 18.3249 2.57766C18.6059 2.66991 18.8316 2.88179 18.9414 3.15636C19.4279 4.37256 19.4608 5.45344 19.2433 6.3472C19.9342 7.28337 20.3012 8.39208 20.3012 9.63971C20.3012 13.3968 18.627 15.3048 15.6588 16.032C15.7837 16.447 15.8496 16.9105 15.8496 17.4121C15.8496 18.0765 15.8471 18.711 15.8424 19.4225C15.8412 19.6127 15.8397 19.8159 15.8375 20.1281C16.2129 20.2109 16.5229 20.5077 16.6031 20.9089C16.7114 21.4504 16.3602 21.9773 15.8186 22.0856C14.6794 22.3134 13.8353 21.5538 13.8353 20.5611C13.8353 20.4708 13.836 20.3417 13.8375 20.1145C13.8398 19.8015 13.8412 19.599 13.8425 19.4094C13.8471 18.7019 13.8496 18.0716 13.8496 17.4121C13.8496 16.7148 13.6664 16.2602 13.4237 16.051C12.7627 15.4812 13.0977 14.3973 13.965 14.2999C16.9314 13.9666 18.3012 12.8177 18.3012 9.63971C18.3012 8.68508 17.9893 7.89571 17.3881 7.23559C17.1301 6.95233 17.0567 6.54659 17.199 6.19087C17.3647 5.77663 17.4354 5.23384 17.2941 4.57702L17.2847 4.57968C16.7928 4.71886 16.1744 5.0198 15.4261 5.5285C15.182 5.69438 14.8772 5.74401 14.5932 5.66413C13.7729 5.43343 12.8913 5.315 12.0012 5.315C11.111 5.315 10.2294 5.43343 9.40916 5.66413C9.12662 5.74359 8.82344 5.69492 8.57997 5.53101C7.8274 5.02439 7.2056 4.72379 6.71079 4.58376C6.56735 5.23696 6.63814 5.77782 6.80336 6.19087C6.94565 6.54659 6.87219 6.95233 6.61423 7.23559C6.01715 7.8912 5.70116 8.69376 5.70116 9.63971C5.70116 12.8116 7.07225 13.9683 10.023 14.2999C10.8883 14.3971 11.2246 15.4769 10.5675 16.0482C10.3751 16.2156 10.1384 16.7802 10.1384 17.4121V20.5611C10.1384 21.5474 9.30356 22.2869 8.17878 22.09C7.63476 21.9948 7.27093 21.4766 7.36613 20.9326C7.43827 20.5204 7.75331 20.2116 8.13841 20.1276V19.1381C7.22829 19.1994 6.47656 19.0498 5.88401 18.6533Z"></path></symbol><symbol viewBox="0 0 24 24" id="shopping-cart-line"><path d="M4.00488 16V4H2.00488V2H5.00488C5.55717 2 6.00488 2.44772 6.00488 3V15H18.4433L20.4433 7H8.00488V5H21.7241C22.2764 5 22.7241 5.44772 22.7241 6C22.7241 6.08176 22.7141 6.16322 22.6942 6.24254L20.1942 16.2425C20.083 16.6877 19.683 17 19.2241 17H5.00488C4.4526 17 4.00488 16.5523 4.00488 16ZM6.00488 23C4.90031 23 4.00488 22.1046 4.00488 21C4.00488 19.8954 4.90031 19 6.00488 19C7.10945 19 8.00488 19.8954 8.00488 21C8.00488 22.1046 7.10945 23 6.00488 23ZM18.0049 23C16.9003 23 16.0049 22.1046 16.0049 21C16.0049 19.8954 16.9003 19 18.0049 19C19.1095 19 20.0049 19.8954 20.0049 21C20.0049 22.1046 19.1095 23 18.0049 23Z"></path></symbol><symbol viewBox="0 0 24 24" id="shopping-cart-2-line"><path d="M4.00436 6.41686L0.761719 3.17422L2.17593 1.76001L5.41857 5.00265H20.6603C21.2126 5.00265 21.6603 5.45037 21.6603 6.00265C21.6603 6.09997 21.6461 6.19678 21.6182 6.29L19.2182 14.29C19.0913 14.713 18.7019 15.0027 18.2603 15.0027H6.00436V17.0027H17.0044V19.0027H5.00436C4.45207 19.0027 4.00436 18.5549 4.00436 18.0027V6.41686ZM6.00436 7.00265V13.0027H17.5163L19.3163 7.00265H6.00436ZM5.50436 23.0027C4.67593 23.0027 4.00436 22.3311 4.00436 21.5027C4.00436 20.6742 4.67593 20.0027 5.50436 20.0027C6.33279 20.0027 7.00436 20.6742 7.00436 21.5027C7.00436 22.3311 6.33279 23.0027 5.50436 23.0027ZM17.5044 23.0027C16.6759 23.0027 16.0044 22.3311 16.0044 21.5027C16.0044 20.6742 16.6759 20.0027 17.5044 20.0027C18.3328 20.0027 19.0044 20.6742 19.0044 21.5027C19.0044 22.3311 18.3328 23.0027 17.5044 23.0027Z"></path></symbol><symbol viewBox="0 0 24 24" id="search-2-line"><path d="M11 2C15.968 2 20 6.032 20 11C20 15.968 15.968 20 11 20C6.032 20 2 15.968 2 11C2 6.032 6.032 2 11 2ZM11 18C14.8675 18 18 14.8675 18 11C18 7.1325 14.8675 4 11 4C7.1325 4 4 7.1325 4 11C4 14.8675 7.1325 18 11 18ZM19.4853 18.0711L22.3137 20.8995L20.8995 22.3137L18.0711 19.4853L19.4853 18.0711Z"></path></symbol><symbol viewBox="0 0 24 24" id="arrow-up-s-line"><path d="M11.9999 10.8284L7.0502 15.7782L5.63599 14.364L11.9999 8L18.3639 14.364L16.9497 15.7782L11.9999 10.8284Z"></path></symbol><symbol viewBox="0 0 24 24" id="arrow-down-s-line"><path d="M11.9999 13.1714L16.9497 8.22168L18.3639 9.63589L11.9999 15.9999L5.63599 9.63589L7.0502 8.22168L11.9999 13.1714Z"></path></symbol><symbol viewBox="0 0 24 24" id="arrow-left-s-line"><path d="M10.8284 12.0007L15.7782 16.9504L14.364 18.3646L8 12.0007L14.364 5.63672L15.7782 7.05093L10.8284 12.0007Z"></path></symbol><symbol viewBox="0 0 24 24" id="star-s-fill"><path d="M11.9998 17L6.12197 20.5902L7.72007 13.8906L2.48926 9.40983L9.35479 8.85942L11.9998 2.5L14.6449 8.85942L21.5104 9.40983L16.2796 13.8906L17.8777 20.5902L11.9998 17Z"></path></symbol><symbol viewBox="0 0 24 24" id="reset-right-line"><path d="M2 12C2 17.5228 6.47715 22 12 22C17.5228 22 22 17.5228 22 12C22 6.47715 17.5228 2 12 2V4C16.4183 4 20 7.58172 20 12C20 16.4183 16.4183 20 12 20C7.58172 20 4 16.4183 4 12C4 9.25022 5.38734 6.82447 7.50024 5.38451L7.5 8H9.5V2L3.5 2V4L5.99918 3.99989C3.57075 5.82434 2 8.72873 2 12Z"></path></symbol><symbol viewBox="0 0 24 24" id="star-fill"><path d="M12.0006 18.26L4.94715 22.2082L6.52248 14.2799L0.587891 8.7918L8.61493 7.84006L12.0006 0.5L15.3862 7.84006L23.4132 8.7918L17.4787 14.2799L19.054 22.2082L12.0006 18.26Z"></path></symbol></svg>